<svg xmlns="http://www.w3.org/2000/svg" width="109.26" height="39" viewBox="0 0 109.26 39"><defs><style>.a,.d{fill:#fff;}.b{fill:#002f79;}.c{fill:#ffc000;}.d{opacity:0.6;}</style></defs><g transform="translate(-8.664 -8.904)"><path class="a" d="M0,39Z" transform="translate(76.923 8.904)"/><g transform="translate(8.664 8.904)"><rect class="b" width="58.369" height="39"/><g transform="translate(14.189 4.333)"><path class="c" d="M247.315,786.187l.486,1.5h1.574l-1.274.926.487,1.5-1.274-.925-1.273.925.486-1.5-1.273-.926h1.574Z" transform="translate(-220.987 -766.686)"/><path class="c" d="M115.816,786.187l.486,1.5h1.574l-1.273.926.486,1.5-1.273-.925-1.274.925.487-1.5-1.274-.926h1.574Z" transform="translate(-112.022 -766.686)"/><path class="c" d="M115.816,710.32l.486,1.5h1.574l-1.273.925.486,1.5-1.273-.926-1.274.926.487-1.5-1.274-.925h1.574Z" transform="translate(-112.022 -703.82)"/><path class="c" d="M247.315,710.32l.486,1.5h1.574l-1.274.925.487,1.5-1.274-.926-1.273.926.486-1.5-1.273-.925h1.574Z" transform="translate(-220.987 -703.82)"/><path class="c" d="M143.632,814l.486,1.5h1.574l-1.273.926.486,1.5L143.632,817l-1.274.925.486-1.5-1.273-.926h1.575Z" transform="translate(-135.071 -789.736)"/><path class="c" d="M219.5,814l.486,1.5h1.575l-1.273.926.486,1.5L219.5,817l-1.273.925.486-1.5-1.273-.926h1.574Z" transform="translate(-197.937 -789.736)"/><path class="c" d="M143.632,682.5l.486,1.5h1.574l-1.273.925.486,1.5-1.273-.926-1.274.926.486-1.5L141.571,684h1.575Z" transform="translate(-135.071 -680.77)"/><path class="c" d="M219.5,682.5l.486,1.5h1.575l-1.273.925.486,1.5L219.5,685.5l-1.273.926.486-1.5L217.438,684h1.574Z" transform="translate(-197.937 -680.77)"/><path class="c" d="M257.429,748.255l.487,1.5h1.574l-1.273.925.486,1.5-1.274-.925-1.273.925.486-1.5-1.273-.925h1.574Z" transform="translate(-229.369 -735.255)"/><path class="c" d="M105.7,748.255l.486,1.5h1.574l-1.273.925.486,1.5-1.273-.925-1.274.925.486-1.5-1.273-.925h1.574Z" transform="translate(-103.64 -735.255)"/><path class="c" d="M181.564,824.117l.486,1.5h1.574l-1.274.925.486,1.5-1.273-.926-1.273.926.486-1.5-1.274-.925h1.574Z" transform="translate(-166.503 -798.117)"/><path class="c" d="M181.564,672.389l.486,1.5h1.574l-1.274.925.486,1.5-1.273-.925-1.273.925.486-1.5-1.274-.925h1.574Z" transform="translate(-166.503 -672.389)"/></g></g><rect class="a" width="0.669" height="39" transform="translate(72.665 8.904)"/><g transform="translate(78.923 8.904)"><path class="d" d="M125.42,50.43a.352.352,0,1,0,.182-.055.307.307,0,0,0-.182.055m2.894-2.366a.335.335,0,1,0,.473,0,.32.32,0,0,0-.237-.109.564.564,0,0,0-.237.109m-2.584-.182a.406.406,0,1,0,.218-.073,1.026,1.026,0,0,0-.218.073m-2.584-.619a.659.659,0,1,0,.91.2.67.67,0,0,0-.564-.309.6.6,0,0,0-.346.109m7.225-1.62a.339.339,0,1,0,.473-.073.382.382,0,0,0-.2-.073.451.451,0,0,0-.273.146m-2.238-.146a.417.417,0,1,0,.291-.127.417.417,0,0,0-.291.127m-2.639-.109a.656.656,0,1,0,.928.018.693.693,0,0,0-.473-.2.566.566,0,0,0-.455.182m-2.4-.8a.7.7,0,1,0,.965.2.7.7,0,0,0-.582-.309.716.716,0,0,0-.382.109m-2.2-.946a.818.818,0,1,0,1.128.255.849.849,0,0,0-.692-.382.726.726,0,0,0-.437.127m6.57-.637a.656.656,0,1,0,.91-.182.656.656,0,0,0-.364-.109.666.666,0,0,0-.546.291m-2.621-.146a.7.7,0,1,0,.983.018.679.679,0,0,0-.491-.218.7.7,0,0,0-.491.2m5.132-.073a.419.419,0,1,0,.582-.109.4.4,0,0,0-.237-.073.414.414,0,0,0-.346.182m2.311-.491a.353.353,0,0,0,.182.455.334.334,0,0,0,.437-.164.361.361,0,0,0-.164-.455.343.343,0,0,0-.146-.036.336.336,0,0,0-.309.2m-9.773,0a.813.813,0,1,0,.564-.237.907.907,0,0,0-.564.237m-2.366-1.2a.9.9,0,1,0,.582-.218,1.085,1.085,0,0,0-.582.218m3.676-.346a.813.813,0,1,0,1.128-.218.892.892,0,0,0-.455-.146.873.873,0,0,0-.673.364m2.475-.073a.694.694,0,1,0,.965-.182.8.8,0,0,0-.382-.127.678.678,0,0,0-.582.309m2.511-.146a.664.664,0,1,0,.874-.346.714.714,0,0,0-.255-.055.637.637,0,0,0-.619.4m-11.229-1.2a1.1,1.1,0,0,0-.71,1.383,1.088,1.088,0,1,0,2.075-.655,1.11,1.11,0,0,0-1.037-.764.677.677,0,0,0-.328.036m13.74.2a.421.421,0,1,0,.546-.237.531.531,0,0,0-.164-.036.429.429,0,0,0-.382.273m-9.427-.364a.934.934,0,1,0,1.292-.273.872.872,0,0,0-.51-.146.909.909,0,0,0-.783.419m2.985-.364a.815.815,0,0,0,.437,1.074.83.83,0,0,0,1.074-.437.847.847,0,0,0-.437-1.074.924.924,0,0,0-.309-.055.789.789,0,0,0-.764.491m2.329-.328a.7.7,0,0,0,.364.91.693.693,0,0,0,.546-1.274.73.73,0,0,0-.273-.055.668.668,0,0,0-.637.419m6.333-.2a.343.343,0,1,0,.4-.273h-.073a.346.346,0,0,0-.328.273m-14.286-.382a1.1,1.1,0,1,0,1.547.073,1.1,1.1,0,0,0-.819-.364,1.268,1.268,0,0,0-.728.291m10.41-.164a.66.66,0,1,0,.783-.51.4.4,0,0,0-.146-.018.675.675,0,0,0-.637.528m-6.843-.51a.938.938,0,1,0,1.183-.6.824.824,0,0,0-.291-.055.95.95,0,0,0-.892.655m2.639-.309a.817.817,0,1,0,.965-.637.5.5,0,0,0-.164-.018.833.833,0,0,0-.8.655m6.5-.728a.427.427,0,1,0,.51-.328h-.073a.379.379,0,0,0-.437.328m-4.277-.018a.7.7,0,1,0,.837-.528.5.5,0,0,0-.164-.018.7.7,0,0,0-.673.546m-7.5-.146a1.1,1.1,0,1,0,1.456-.528,1.043,1.043,0,0,0-.455-.109,1.162,1.162,0,0,0-1,.637m14.031-1.893a.337.337,0,1,0,.346.328.342.342,0,0,0-.346-.328h0m-7.7-.109a.81.81,0,1,0,.8.8.785.785,0,0,0-.8-.8h0m-3.294.855a.938.938,0,1,0,.965-.91h-.018a.91.91,0,0,0-.946.91m7.407-.983a.664.664,0,1,0,.673.655.668.668,0,0,0-.673-.655h0M128.386,32.7a.692.692,0,1,0,.692.692.669.669,0,0,0-.692-.692h0m-7.025-.018a1.08,1.08,0,0,0-1.092,1.074,1.092,1.092,0,1,0,1.092-1.074h0m10.937-.51a.428.428,0,1,0,.437.419.439.439,0,0,0-.437-.419h0m-6.26-.582a.821.821,0,0,0,.364,1.6.822.822,0,0,0-.2-1.62c-.036,0-.109.018-.164.018m-2.693-.528a.908.908,0,1,0,.291-.055.905.905,0,0,0-.291.055m6.806-.255a.66.66,0,1,0,.783.51.679.679,0,0,0-.655-.528.27.27,0,0,1-.127.018m3.567-.437a.336.336,0,1,0,.4.255.346.346,0,0,0-.328-.273.109.109,0,0,0-.073.018m-13.776-.182a1.1,1.1,0,1,0,.91,2,1.1,1.1,0,0,0-.473-2.093.761.761,0,0,0-.437.091m7.771-.182a.7.7,0,1,0,.819.546.714.714,0,0,0-.673-.564.452.452,0,0,1-.146.018m-2.457-.546a.8.8,0,1,0,.328-.073.714.714,0,0,0-.328.073m6.315-.291a.4.4,0,0,0-.328.491.418.418,0,1,0,.819-.164.428.428,0,0,0-.419-.346c-.018,0-.036.018-.073.018m-9.973-.728a.934.934,0,0,0,1.147,1.474.946.946,0,0,0,.164-1.31.931.931,0,0,0-.746-.364.827.827,0,0,0-.564.2m-4.022.109a1.1,1.1,0,1,0,1.674,1.42,1.091,1.091,0,0,0-.127-1.529,1.035,1.035,0,0,0-.71-.255.972.972,0,0,0-.837.364m11.593-.491a.663.663,0,0,0-.364.855.666.666,0,0,0,1.238-.491.655.655,0,0,0-.619-.4.578.578,0,0,0-.255.036M126.6,27.7a.689.689,0,1,0,.273-.055.608.608,0,0,0-.273.055m-2.439,0a.815.815,0,1,0,1.128.237.831.831,0,0,0-.692-.364.676.676,0,0,0-.437.127m8.444-.673a.327.327,0,0,0-.182.437.335.335,0,1,0,.619-.255.354.354,0,0,0-.309-.218c-.036.018-.091.018-.127.036m-2.293-.71a.421.421,0,1,0,.546.237.435.435,0,0,0-.4-.273.562.562,0,0,0-.146.036m-11.065.364a.931.931,0,1,0,1.292-.255.948.948,0,0,0-.528-.164.921.921,0,0,0-.764.419m3.33-.637a.811.811,0,1,0,1.147,1.147.807.807,0,0,0,0-1.147.8.8,0,0,0-.582-.237.786.786,0,0,0-.564.237m5.2-.346a.659.659,0,1,0,.91.2.67.67,0,0,0-.564-.309.851.851,0,0,0-.346.109M125,25.57a.71.71,0,1,0,.382-.109.764.764,0,0,0-.382.109m-4.2-.8a.813.813,0,1,0,1.128-.218.842.842,0,0,0-.455-.146.873.873,0,0,0-.673.364m10.009-.983a.341.341,0,1,0,.473.091.352.352,0,0,0-.473-.091m-7.789,0a.695.695,0,1,0,.983,0,.633.633,0,0,0-.491-.2.737.737,0,0,0-.491.2m5.241-.437a.422.422,0,1,0,.582.127.394.394,0,0,0-.346-.182.56.56,0,0,0-.237.055m-2.639-.109a.638.638,0,1,0,.455-.2.652.652,0,0,0-.455.2m-2.475-1.856a.656.656,0,1,0,.91-.182.656.656,0,0,0-.364-.109.623.623,0,0,0-.546.291m5.35-.328a.341.341,0,0,0,0,.473.335.335,0,0,0,.473-.473.32.32,0,0,0-.237-.109.406.406,0,0,0-.237.109m-2.6.018a.417.417,0,1,0,.291-.127.515.515,0,0,0-.291.127m-.237-2.329a.341.341,0,1,0,.473-.091.367.367,0,0,0-.2-.055.346.346,0,0,0-.273.146" transform="translate(-95.555 -15.215)"/><path class="a" d="M107.628,67.564a1.095,1.095,0,1,1-.764-1.347,1.095,1.095,0,0,1,.764,1.347" transform="translate(-86.281 -54.133)"/><path class="a" d="M103.29,136.862a1.087,1.087,0,1,1,.983,1.183,1.11,1.11,0,0,1-.983-1.183" transform="translate(-84.491 -111.147)"/><path class="a" d="M89.852,134.471a1.086,1.086,0,0,1,1.474-.455,1.107,1.107,0,0,1,.455,1.474,1.091,1.091,0,1,1-1.929-1.019" transform="translate(-73.401 -109.521)"/><path class="a" d="M77.847,126.831a1.089,1.089,0,1,1-.182,1.529,1.094,1.094,0,0,1,.182-1.529" transform="translate(-63.343 -103.554)"/><path class="a" d="M70.027,114.917a1.1,1.1,0,0,1,1.347.764,1.084,1.084,0,1,1-1.347-.764" transform="translate(-56.633 -93.97)"/><path class="a" d="M67.482,101.563a1.091,1.091,0,1,1-1.219.946,1.089,1.089,0,0,1,1.219-.946" transform="translate(-54.197 -83.073)"/><path class="a" d="M70.611,87.8a1.089,1.089,0,1,1-1.492.382,1.073,1.073,0,0,1,1.492-.382" transform="translate(-56.416 -71.694)"/><path class="a" d="M78.779,76.35A1.1,1.1,0,1,1,77.25,76.1a1.1,1.1,0,0,1,1.529.255" transform="translate(-62.818 -62.082)"/><path class="a" d="M92.489,68.611a1.069,1.069,0,0,1-.892,1.256,1.089,1.089,0,1,1-.364-2.147,1.069,1.069,0,0,1,1.256.892" transform="translate(-73.89 -55.381)"/><path class="a" d="M104.074,152.928a.937.937,0,1,1-.946-.928.948.948,0,0,1,.946.928" transform="translate(-83.601 -124.338)"/><path class="a" d="M119.769,149.987a.938.938,0,1,1-1.183-.6.938.938,0,0,1,1.183.6" transform="translate(-96.475 -122.161)"/><path class="a" d="M101.8,53.207a.938.938,0,1,1,.91.965.937.937,0,0,1-.91-.965" transform="translate(-83.274 -42.779)"/><path class="a" d="M116.877,54.96a.932.932,0,1,1,.582,1.183.928.928,0,0,1-.582-1.183" transform="translate(-95.567 -44.441)"/><path class="a" d="M86.524,56.189a.933.933,0,1,1,1.165.619.922.922,0,0,1-1.165-.619" transform="translate(-70.746 -44.978)"/><path class="a" d="M71.945,64.355a.935.935,0,1,1,1.31.182.931.931,0,0,1-1.31-.182" transform="translate(-58.696 -51.415)"/><path class="a" d="M55.36,89.061a.944.944,0,1,1,1.2-.582.948.948,0,0,1-1.2.582" transform="translate(-44.768 -71.353)"/><path class="a" d="M61.4,75.212a.942.942,0,1,1,1.31-.237.952.952,0,0,1-1.31.237" transform="translate(-49.9 -60.125)"/><path class="a" d="M53.207,104.372a.938.938,0,1,1,.965-.91.914.914,0,0,1-.965.91" transform="translate(-42.779 -83.844)"/><path class="a" d="M56,119.833a.939.939,0,1,1,.637-1.165A.946.946,0,0,1,56,119.833" transform="translate(-44.822 -96.52)"/><path class="a" d="M63.584,133.685a.937.937,0,1,1,.2-1.31.934.934,0,0,1-.2,1.31" transform="translate(-50.791 -107.97)"/><path class="a" d="M87.133,150.669a.938.938,0,1,1-.564-1.2.924.924,0,0,1,.564,1.2" transform="translate(-69.79 -122.225)"/><path class="a" d="M74.631,144.313a.939.939,0,1,1-.218-1.31.951.951,0,0,1,.218,1.31" transform="translate(-59.653 -116.832)"/><path class="a" d="M104.438,40.519a.819.819,0,1,1-.819-.819.816.816,0,0,1,.819.819" transform="translate(-84.092 -32.475)"/><path class="a" d="M116.727,41.89a.817.817,0,1,1-.637-.965.824.824,0,0,1,.637.965" transform="translate(-94.16 -33.464)"/><path class="a" d="M127.954,45.5a.813.813,0,1,1-.455-1.056.8.8,0,0,1,.455,1.056" transform="translate(-103.386 -36.309)"/><path class="a" d="M40.519,103a.819.819,0,1,1-.819.837.816.816,0,0,1,.819-.837" transform="translate(-32.475 -84.255)"/><path class="a" d="M41.9,90.647a.814.814,0,1,1-.946.655.809.809,0,0,1,.946-.655" transform="translate(-33.488 -74.141)"/><path class="a" d="M45.3,79.444a.813.813,0,1,1-1.056.455.812.812,0,0,1,1.056-.455" transform="translate(-36.145 -64.939)"/><path class="a" d="M51.544,67.88a.815.815,0,1,1-1.128.237.807.807,0,0,1,1.128-.237" transform="translate(-41.135 -55.414)"/><path class="a" d="M59.314,58.736a.811.811,0,1,1-1.147.018.792.792,0,0,1,1.147-.018" transform="translate(-47.393 -47.853)"/><path class="a" d="M68.945,50.753a.815.815,0,1,1-1.128-.237.823.823,0,0,1,1.128.237" transform="translate(-55.168 -41.216)"/><path class="a" d="M79.076,45.5A.815.815,0,1,1,78,45.084a.807.807,0,0,1,1.074.419" transform="translate(-63.407 -36.821)"/><path class="a" d="M91.075,42.018a.814.814,0,1,1-.983-.6.828.828,0,0,1,.983.6" transform="translate(-73.186 -33.865)"/><path class="a" d="M102.9,166.419a.819.819,0,1,1,.819.8.8.8,0,0,1-.819-.8" transform="translate(-84.173 -135.463)"/><path class="a" d="M90.625,165.105a.841.841,0,0,1,.965-.655.833.833,0,0,1,.655.946.841.841,0,0,1-.965.655.8.8,0,0,1-.655-.946" transform="translate(-74.119 -134.513)"/><path class="a" d="M79.41,161.7a.813.813,0,1,1,.455,1.056.8.8,0,0,1-.455-1.056" transform="translate(-64.905 -131.852)"/><path class="a" d="M67.88,155.353a.815.815,0,1,1,.237,1.128.8.8,0,0,1-.237-1.128" transform="translate(-55.414 -126.781)"/><path class="a" d="M58.667,147.685a.811.811,0,1,1,.018,1.147.808.808,0,0,1-.018-1.147" transform="translate(-47.802 -120.605)"/><path class="a" d="M50.717,137.98a.815.815,0,1,1-.237,1.128.8.8,0,0,1,.237-1.128" transform="translate(-41.18 -112.756)"/><path class="a" d="M45.414,127.884A.815.815,0,1,1,45,128.957a.822.822,0,0,1,.419-1.074" transform="translate(-36.752 -104.553)"/><path class="a" d="M42.018,115.892a.814.814,0,1,1-.6.983.814.814,0,0,1,.6-.983" transform="translate(-33.865 -94.781)"/><path class="a" d="M127,161.771a.82.82,0,1,1,1.074.437.815.815,0,0,1-1.074-.437" transform="translate(-103.83 -131.397)"/><path class="a" d="M114.921,165.1a.821.821,0,1,1,.983.619.84.84,0,0,1-.983-.619" transform="translate(-93.993 -134.239)"/><path class="a" d="M96.583,30.492a.692.692,0,1,1-.692-.692.691.691,0,0,1,.692.692" transform="translate(-77.875 -24.377)"/><path class="a" d="M113.754,30.745a.693.693,0,0,1-1.347-.328.689.689,0,0,1,.837-.51.7.7,0,0,1,.51.837" transform="translate(-91.934 -24.448)"/><path class="a" d="M127.268,34.023a.688.688,0,1,1-.346-.91.685.685,0,0,1,.346.91" transform="translate(-103.028 -27.034)"/><path class="a" d="M139.207,39.225a.694.694,0,1,1-.182-.965.684.684,0,0,1,.182.965" transform="translate(-112.837 -31.2)"/><path class="a" d="M137.962,169.472a.7.7,0,1,1,.91.382.711.711,0,0,1-.91-.382" transform="translate(-112.811 -137.843)"/><path class="a" d="M124.841,174.86a.7.7,0,1,1,.819.546.7.7,0,0,1-.819-.546" transform="translate(-102.111 -142.357)"/><path class="a" d="M111.2,177.592a.692.692,0,1,1,.692.692.7.7,0,0,1-.692-.692" transform="translate(-90.963 -144.706)"/><path class="a" d="M94.741,177.34a.7.7,0,1,1,.528.837.72.72,0,0,1-.528-.837" transform="translate(-77.488 -144.619)"/><path class="a" d="M82.573,174.844a.7.7,0,1,1,.382.91.7.7,0,0,1-.382-.91" transform="translate(-67.504 -142.669)"/><path class="a" d="M66.534,167.9a.692.692,0,1,1,.164.965.7.7,0,0,1-.164-.965" transform="translate(-54.323 -137.106)"/><path class="a" d="M56.069,160.52a.7.7,0,1,1-.018.983.709.709,0,0,1,.018-.983" transform="translate(-45.696 -131.147)"/><path class="a" d="M46.022,150.3a.7.7,0,0,1,.965.2.7.7,0,1,1-1.165.764.715.715,0,0,1,.2-.965" transform="translate(-37.396 -122.857)"/><path class="a" d="M38.725,139.361a.693.693,0,1,1-.364.91.7.7,0,0,1,.364-.91" transform="translate(-31.336 -113.955)"/><path class="a" d="M33.717,127.712a.7.7,0,0,1,.837.51.693.693,0,1,1-.837-.51" transform="translate(-27.147 -104.454)"/><path class="a" d="M30.192,112.1a.707.707,0,0,1,.71.692.7.7,0,1,1-1.4.018.7.7,0,0,1,.692-.71" transform="translate(-24.131 -91.699)"/><path class="a" d="M30.16,96.641a.7.7,0,1,1-.819.546.69.69,0,0,1,.819-.546" transform="translate(-23.991 -79.043)"/><path class="a" d="M33.036,82.161a.693.693,0,1,1-.91.364.7.7,0,0,1,.91-.364" transform="translate(-26.23 -67.165)"/><path class="a" d="M38.925,68.361a.694.694,0,1,1-.965.182.7.7,0,0,1,.965-.182" transform="translate(-30.954 -55.822)"/><path class="a" d="M47.721,55.738a.7.7,0,1,1-.983-.018.692.692,0,0,1,.983.018" transform="translate(-38.057 -45.419)"/><path class="a" d="M57.487,46.322a.7.7,0,0,1-1.165.764.7.7,0,0,1,1.165-.764" transform="translate(-45.985 -37.641)"/><path class="a" d="M68.753,38.89a.69.69,0,0,1-.382.91.693.693,0,1,1,.382-.91" transform="translate(-55.14 -31.465)"/><path class="a" d="M82.206,33.287a.7.7,0,1,1-.819-.546.69.69,0,0,1,.819.546" transform="translate(-66.118 -26.772)"/><path class="a" d="M87.633,20.222a.66.66,0,1,1-.783-.51.639.639,0,0,1,.783.51" transform="translate(-70.617 -16.109)"/><path class="a" d="M105.029,18.652a.668.668,0,0,1-.673.655.652.652,0,0,1-.655-.655.668.668,0,0,1,.673-.655.641.641,0,0,1,.655.655" transform="translate(-84.828 -14.721)"/><path class="a" d="M125.029,21.138a.692.692,0,0,1-.8.491.664.664,0,1,1,.309-1.292.662.662,0,0,1,.491.8" transform="translate(-101.207 -16.625)"/><path class="a" d="M138.679,25.833a.664.664,0,1,1-.346-.874.66.66,0,0,1,.346.874" transform="translate(-112.4 -20.374)"/><path class="a" d="M135.706,183.861a.657.657,0,1,1,.855.364.673.673,0,0,1-.855-.364" transform="translate(-110.973 -149.665)"/><path class="a" d="M120.241,188.223a.667.667,0,1,1,.783.528.678.678,0,0,1-.783-.528" transform="translate(-98.348 -153.318)"/><path class="a" d="M102,189.755a.664.664,0,1,1,.655.673.68.68,0,0,1-.655-.673" transform="translate(-83.437 -154.686)"/><path class="a" d="M85.637,187.747a.66.66,0,1,1,.51.783.661.661,0,0,1-.51-.783" transform="translate(-70.041 -153.151)"/><path class="a" d="M69.348,182.305a.664.664,0,1,1,.346.874.654.654,0,0,1-.346-.874" transform="translate(-56.681 -148.801)"/><path class="a" d="M52.6,172.527a.662.662,0,1,1,.127.928.665.665,0,0,1-.127-.928" transform="translate(-42.918 -140.916)"/><path class="a" d="M42.5,163.551a.656.656,0,1,1-.018.928.659.659,0,0,1,.018-.928" transform="translate(-34.601 -133.632)"/><path class="a" d="M32.322,150.718a.665.665,0,0,1,.91.182.659.659,0,0,1-1.11.71.638.638,0,0,1,.2-.892" transform="translate(-26.189 -123.201)"/><path class="a" d="M25.64,138.348a.664.664,0,1,1-.346.874.685.685,0,0,1,.346-.874" transform="translate(-20.653 -113.124)"/><path class="a" d="M20.447,122.137a.66.66,0,1,1-.51.783.67.67,0,0,1,.51-.783" transform="translate(-16.298 -99.898)"/><path class="a" d="M18.555,104.4a.664.664,0,1,1-.655.673.68.68,0,0,1,.655-.673" transform="translate(-14.642 -85.4)"/><path class="a" d="M20.245,87.041a.678.678,0,0,1,.528.783.652.652,0,0,1-.783.51.678.678,0,0,1-.528-.783.685.685,0,0,1,.783-.51" transform="translate(-15.914 -71.19)"/><path class="a" d="M25.151,71.261a.657.657,0,1,1-.855.364.648.648,0,0,1,.855-.364" transform="translate(-19.837 -58.249)"/><path class="a" d="M33.007,56.518a.656.656,0,1,1-.91.182.668.668,0,0,1,.91-.182" transform="translate(-26.164 -46.145)"/><path class="a" d="M45.327,42.069a.656.656,0,1,1-.928-.018.643.643,0,0,1,.928.018" transform="translate(-36.155 -34.244)"/><path class="a" d="M57.189,32.643a.649.649,0,0,1-.182.91.665.665,0,0,1-.91-.182.649.649,0,0,1,.182-.91.636.636,0,0,1,.91.182" transform="translate(-45.796 -26.455)"/><path class="a" d="M71.68,24.959a.657.657,0,1,1-.855-.364.657.657,0,0,1,.855.364" transform="translate(-57.594 -20.082)"/><path class="a" d="M96.037,10.313a.419.419,0,1,1-.419-.419.4.4,0,0,1,.419.419" transform="translate(-77.875 -8.093)"/><path class="a" d="M105.592.346A.346.346,0,1,1,105.246,0a.346.346,0,0,1,.346.346" transform="translate(-85.809)"/><path class="a" d="M130.524,3.369a.336.336,0,1,1-.255-.4.322.322,0,0,1,.255.4" transform="translate(-106.228 -2.423)"/><path class="a" d="M149.692,10.028a.342.342,0,1,1-.164-.455.333.333,0,0,1,.164.455" transform="translate(-121.921 -7.808)"/><path class="a" d="M143.887,203.724a.34.34,0,1,1,.437.2.353.353,0,0,1-.437-.2" transform="translate(-117.681 -166.271)"/><path class="a" d="M124.672,209.172a.343.343,0,1,1,.4.273.363.363,0,0,1-.4-.273" transform="translate(-101.978 -170.773)"/><path class="a" d="M102.894,210.928a.337.337,0,1,1,.328.346.342.342,0,0,1-.328-.346" transform="translate(-84.167 -172.273)"/><path class="a" d="M80.837,207.923a.344.344,0,0,1,.4-.255.336.336,0,1,1-.146.655.311.311,0,0,1-.255-.4" transform="translate(-66.114 -169.87)"/><path class="a" d="M61.273,201.137a.342.342,0,1,1,.164.455.362.362,0,0,1-.164-.455" transform="translate(-50.099 -164.375)"/><path class="a" d="M42.315,189.787a.339.339,0,1,1,.073.473.345.345,0,0,1-.073-.473" transform="translate(-34.562 -155.137)"/><path class="a" d="M28.5,177.28a.335.335,0,1,1-.018.473.325.325,0,0,1,.018-.473" transform="translate(-23.221 -144.941)"/><path class="a" d="M17.31,162.945a.335.335,0,0,1,.473.109.341.341,0,1,1-.473-.109" transform="translate(-14.035 -133.244)"/><path class="a" d="M9.488,148.573a.342.342,0,1,1-.164.455.32.32,0,0,1,.164-.455" transform="translate(-7.595 -121.512)"/><path class="a" d="M3.123,129.869a.336.336,0,1,1-.255.4.335.335,0,0,1,.255-.4" transform="translate(-2.341 -106.228)"/><path class="a" d="M.328,106.7a.337.337,0,0,1,.018.673A.342.342,0,0,1,0,107.046a.331.331,0,0,1,.328-.346" transform="translate(0 -87.282)"/><path class="a" d="M1.972,86.991a.343.343,0,1,1-.4.273.363.363,0,0,1,.4-.273" transform="translate(-1.281 -71.158)"/><path class="a" d="M8.111,65.886a.335.335,0,1,1-.437.182.335.335,0,0,1,.437-.182" transform="translate(-6.255 -53.875)"/><path class="a" d="M18.293,46.819a.341.341,0,1,1-.473.091.33.33,0,0,1,.473-.091" transform="translate(-14.525 -38.248)"/><path class="a" d="M32.244,30.209a.335.335,0,1,1-.473,0,.311.311,0,0,1,.473,0" transform="translate(-25.911 -24.622)"/><path class="a" d="M48.205,17.41a.341.341,0,1,1-.473-.091.33.33,0,0,1,.473.091" transform="translate(-38.924 -14.116)"/><path class="a" d="M67.2,7.62a.335.335,0,0,1-.182.437.33.33,0,0,1-.437-.2.335.335,0,0,1,.182-.437.351.351,0,0,1,.437.2" transform="translate(-54.447 -6.055)"/><path class="a" d="M84.642,2.445a.343.343,0,1,1-.4-.273.347.347,0,0,1,.4.273" transform="translate(-68.682 -1.772)"/><path class="a" d="M117.467,10.558a.422.422,0,1,1-.309-.51.417.417,0,0,1,.309.51" transform="translate(-95.41 -8.21)"/><path class="a" d="M136.756,15.156a.423.423,0,1,1-.2-.564.436.436,0,0,1,.2.564" transform="translate(-111.205 -11.899)"/><path class="a" d="M151.858,21.948a.419.419,0,1,1-.109-.582.415.415,0,0,1,.109.582" transform="translate(-123.595 -17.417)"/><path class="a" d="M149.855,189.6a.421.421,0,1,1,.546.237.415.415,0,0,1-.546-.237" transform="translate(-122.557 -154.623)"/><path class="a" d="M132.752,196.666a.407.407,0,0,1,.328-.491.42.42,0,0,1,.491.328.407.407,0,0,1-.328.491.4.4,0,0,1-.491-.328" transform="translate(-108.584 -160.469)"/><path class="a" d="M113,200.319a.428.428,0,1,1,.419.437.427.427,0,0,1-.419-.437" transform="translate(-92.435 -163.521)"/><path class="a" d="M92.148,199.758a.423.423,0,0,1,.51-.309.432.432,0,0,1,.309.51.409.409,0,0,1-.51.309.423.423,0,0,1-.309-.51" transform="translate(-75.369 -163.142)"/><path class="a" d="M75.407,195.861a.428.428,0,1,1,.218.564.413.413,0,0,1-.218-.564" transform="translate(-61.649 -160.009)"/><path class="a" d="M56.407,187.216a.433.433,0,0,1,.6-.091.417.417,0,0,1-.491.673.387.387,0,0,1-.109-.582" transform="translate(-46.07 -153.003)"/><path class="a" d="M41.676,176.387a.425.425,0,1,1-.018.6.413.413,0,0,1,.018-.6" transform="translate(-33.978 -144.193)"/><path class="a" d="M30.319,164.392a.422.422,0,1,1-.127.582.416.416,0,0,1,.127-.582" transform="translate(-24.641 -134.419)"/><path class="a" d="M21.492,150.943a.433.433,0,0,1,.564.218.416.416,0,0,1-.764.328.387.387,0,0,1,.2-.546" transform="translate(-17.379 -123.444)"/><path class="a" d="M14.5,134.848a.428.428,0,1,1-.328.51.461.461,0,0,1,.328-.51" transform="translate(-11.591 -110.298)"/><path class="a" d="M10.313,114.5a.419.419,0,1,1-.419.419.4.4,0,0,1,.419-.419" transform="translate(-8.093 -93.662)"/><path class="a" d="M10.24,96.452a.418.418,0,1,1-.491.328.407.407,0,0,1,.491-.328" transform="translate(-7.965 -78.891)"/><path class="a" d="M13.9,77.655a.421.421,0,1,1-.546.237.409.409,0,0,1,.546-.237" transform="translate(-10.899 -63.497)"/><path class="a" d="M21.113,60.088a.419.419,0,1,1-.582.109.431.431,0,0,1,.582-.109" transform="translate(-16.727 -49.096)"/><path class="a" d="M32.676,43.237a.425.425,0,1,1-.6-.018.447.447,0,0,1,.6.018" transform="translate(-26.125 -35.266)"/><path class="a" d="M46.4,30.119a.422.422,0,1,1-.582-.127.416.416,0,0,1,.582.127" transform="translate(-37.321 -24.478)"/><path class="a" d="M61.338,20.492a.421.421,0,1,1-.546-.237.415.415,0,0,1,.546.237" transform="translate(-49.509 -16.543)"/><path class="a" d="M78.712,13.523a.425.425,0,1,1-.51-.346.451.451,0,0,1,.51.346" transform="translate(-63.698 -10.775)"/><path class="a" d="M90.179,84.858a1.833,1.833,0,0,0-1.929-1.8,2.051,2.051,0,0,0-2.111,1.8Zm2.348,3.494a5.013,5.013,0,0,1-4.2,2.184,4.255,4.255,0,0,1-4.422-4.6A4.155,4.155,0,0,1,88.195,81.4a3.935,3.935,0,0,1,3.4,1.62,6.421,6.421,0,0,1,.874,3.367H86.1a2.322,2.322,0,0,0,2.457,2.129A2.491,2.491,0,0,0,90.8,87.333Z" transform="translate(-68.631 -66.586)"/><path class="a" d="M141.984,81.891V83.11a2.653,2.653,0,0,1,2.766-1.42V83.82a3.2,3.2,0,0,0-1.856.51C142.02,85,142,85.876,142,87.314V90.5h-2V81.891Z" transform="translate(-114.522 -66.822)"/><path class="a" d="M174.106,84.712a2.035,2.035,0,0,0-1.947-1.474c-1.183,0-2.129.946-2.129,2.675,0,1.547.819,2.693,2.166,2.693a2.212,2.212,0,0,0,2.075-1.692l1.783.928a4.091,4.091,0,0,1-3.876,2.693,4.28,4.28,0,0,1-4.277-4.568,4.358,4.358,0,0,1,4.35-4.568,4.009,4.009,0,0,1,3.731,2.457Z" transform="translate(-137.344 -66.586)"/></g></g></svg>