<?xml version="1.0" encoding="UTF-8"?>
<!DOCTYPE svg PUBLIC "-//W3C//DTD SVG 1.1//EN" "http://www.w3.org/Graphics/SVG/1.1/DTD/svg11.dtd">
<!-- Creator: CorelDRAW X6 -->
<svg xmlns="http://www.w3.org/2000/svg" xml:space="preserve" width="10.9306in" height="3.27778in" version="1.1" style="shape-rendering:geometricPrecision; text-rendering:geometricPrecision; image-rendering:optimizeQuality; fill-rule:evenodd; clip-rule:evenodd"
viewBox="0 0 10931 3278"
 xmlns:xlink="http://www.w3.org/1999/xlink">
 <defs>
  <style type="text/css">
   <![CDATA[
    .fil2 {fill:#FEFEFE}
    .fil0 {fill:#742932}
    .fil1 {fill:#742932;fill-rule:nonzero}
   ]]>
  </style>
 </defs>
 <g id="Layer_x0020_1">
  <metadata id="CorelCorpID_0Corel-Layer"/>
  <path class="fil0" d="M1330 -3c-737,24 -1330,750 -1330,1640 0,905 613,1641 1367,1641 754,0 1367,-736 1367,-1641 0,-890 -593,-1616 -1330,-1640l-75 0z"/>
  <path class="fil1" d="M10177 1468l0 -50 458 0 0 50 -458 0zm-1019 418c-10,0 -14,-4 -14,-11 0,-8 0,-12 6,-17l669 -981 -517 0c-64,0 -99,40 -105,40 -4,0 -10,-6 -8,-13l16 -73c2,-10 6,-17 14,-17 6,0 23,11 152,11l592 0 10 35 -648 950c117,-1 485,12 647,29l393 -908c12,-25 10,-44 -4,-72l-21 -44 128 0c8,0 16,4 20,14l446 1080 -130 18 -204 -502 -178 -449 -193 448 -199 485c-172,-27 -774,-54 -870,-21zm-50 -1062c0,10 -2,23 -37,25 -90,4 -94,25 -94,102l0 951 -76 15 -698 -951 -2 0 0 933 -60 17 0 -966c0,-77 -4,-99 -93,-102 -35,-2 -35,-15 -35,-25 0,-13 6,-21 18,-19 66,8 191,12 240,15 4,6 10,11 16,19l629 873 0 -761c0,-77 -4,-99 -94,-102 -35,-2 -37,-15 -37,-25 0,-13 8,-19 20,-19 27,0 117,15 150,15 31,0 109,-15 134,-15 11,0 20,6 20,19zm-1340 518l1 43 -343 0 0 396c0,64 2,77 51,85 39,6 72,9 127,9 54,0 144,-2 185,-9 27,-6 54,4 66,-68 14,-74 27,-77 37,-77 12,0 12,4 12,23 0,41 -2,89 -4,139 -2,39 -10,41 -44,39 -51,-2 -139,-6 -209,-8 -60,-2 -191,-4 -241,-4l-107 7 0 -966c0,-77 -6,-99 -96,-102 -35,-2 -35,-14 -35,-23 0,-14 8,-21 19,-21 12,0 35,4 66,10 31,6 86,10 128,10 51,0 197,-2 257,-4 70,-2 111,-4 162,-6 35,-2 43,-2 44,37 2,50 4,101 4,141 0,19 0,23 -12,23 -10,0 -23,-4 -37,-77 -12,-72 -39,-64 -66,-70 -18,-4 -53,-4 -63,-4l-205 0c-29,0 -41,8 -41,27l0 450 342 0zm-751 -510c0,10 -16,25 -66,33 -39,6 -43,48 -43,85l0 955 -128 12 0 -966c0,-39 -6,-79 -39,-85 -64,-12 -74,-23 -74,-33 0,-11 4,-17 23,-15 47,4 121,8 158,8 37,0 99,-4 146,-8 19,-2 23,4 23,15zm-474 275c0,199 -148,336 -372,336 -49,0 -113,-35 -113,-54 0,-4 6,-15 12,-15 8,0 49,23 92,23 189,0 253,-112 253,-253 0,-177 -78,-277 -337,-277 -47,0 -55,9 -55,59l0 977 -129 15 0 -965c0,-77 -4,-98 -93,-102 -35,-2 -37,-15 -37,-25 0,-13 8,-19 19,-19 12,0 35,4 66,9 31,6 94,10 136,10 66,0 169,-8 236,-8 148,0 321,106 321,289zm-826 796l-446 -1080c-4,-10 -12,-14 -20,-14l-128 0 21 44c13,27 16,47 4,72l-428 991 93 -13 177 -435 413 0 183 452 130 -18zm-335 -485l-370 0 193 -448 177 448zm-732 131c0,243 -224,386 -464,386 -90,0 -275,-29 -380,-101l27 -56c74,64 269,114 353,114 189,0 366,-109 366,-302 0,-125 -95,-176 -215,-227 -98,-41 -209,-92 -311,-141 -149,-72 -200,-172 -203,-319 -3,-179 115,-375 445,-375 78,0 197,15 296,35 4,76 6,153 6,213 0,25 0,29 -14,29 -12,0 -17,-4 -33,-97 -14,-75 -113,-137 -269,-137 -150,0 -343,101 -343,284 0,336 738,230 738,694z"/>
  <path class="fil1" d="M8152 2311l-57 0c-17,0 -25,7 -25,27l0 338c0,24 1,25 17,30 20,6 45,8 76,8 123,0 170,-86 170,-203 0,-103 -29,-200 -180,-200zm4 422c-21,0 -64,-10 -99,-8l-47 3 0 -386c0,-29 0,-36 -33,-37 -15,-1 -18,-4 -18,-10 0,-7 4,-11 12,-11 8,0 19,2 27,4 12,2 35,4 51,4 15,0 31,-1 46,-2 20,-1 41,-2 74,-2 131,0 228,85 228,213 0,137 -90,231 -241,231z"/>
  <path class="fil1" d="M8602 2311c-14,2 -14,18 -14,30l0 382 -59 5 0 -386c0,-13 -1,-28 -12,-30 -25,-4 -32,-5 -32,-12 0,-7 3,-11 13,-10 19,2 48,3 63,3 14,0 39,-2 58,-3 10,-1 13,3 13,10 0,7 -10,9 -29,12z"/>
  <path class="fil1" d="M9042 2200l-34 0c-13,0 -20,10 -20,26l0 237c12,2 18,2 33,2 122,0 140,-86 140,-147 0,-72 -29,-118 -120,-118zm261 539c-3,3 -23,5 -36,2 -29,-5 -47,-11 -67,-41l-33 -49 -105 -169c-16,3 -20,5 -53,5l-21 0 0 236 -62 8 0 -488c0,-37 -1,-45 -43,-47 -18,-1 -22,-2 -22,-9 0,-10 6,-12 13,-12 7,0 19,2 34,5 15,2 50,5 71,5 35,0 70,-5 105,-5 77,0 144,45 144,127 0,78 -59,144 -107,159l96 157c28,45 43,75 85,104 6,4 6,8 2,12l0 -1z"/>
  <path class="fil1" d="M9582 2306c-93,0 -165,68 -165,202 0,118 55,203 165,203 118,0 165,-85 165,-203 0,-137 -80,-202 -165,-202zm0 427c-132,0 -230,-94 -230,-224 0,-137 116,-225 230,-225 119,0 230,81 230,225 0,130 -98,224 -230,224z"/>
  <path class="fil1" d="M10439 2305c-38,2 -37,16 -33,51 5,41 44,367 44,367l-66 6 -39 -359 -144 332 -27 5 -163 -339 -28 354 -56 7c34,-444 30,-370 32,-388 3,-28 0,-35 -33,-36 -16,-1 -19,-7 -19,-12 0,-9 6,-9 12,-9 18,2 62,4 78,6 11,1 15,3 23,18l169 349 148 -348c6,-15 15,-19 26,-20 17,-2 59,-3 77,-5 7,-1 15,2 15,9 0,5 -2,10 -18,11z"/>
  <path class="fil1" d="M10732 2359l-70 170 135 0 -65 -170zm149 370l-72 -177 -159 0 -69 171 -46 6 172 -395c4,-9 3,-15 -2,-24l-11 -23 57 0c5,0 9,3 12,8l178 428 -59 8z"/>
  <path class="fil1" d="M4279 2202c-18,3 -18,26 -18,39 0,5 -4,199 -15,289 -9,64 -36,205 -194,205 -158,0 -199,-123 -210,-207 -6,-45 -9,-181 -9,-251 0,-22 -2,-37 -2,-37 -1,-17 -1,-37 -15,-39 -35,-6 -40,-7 -40,-12 0,-9 6,-10 15,-9 23,2 55,3 73,3 18,0 44,-2 67,-3 10,-1 15,0 15,9 0,6 -7,8 -35,12 -16,3 -19,20 -18,39 0,0 2,178 7,265 8,136 66,206 151,206 106,0 154,-86 162,-200 6,-89 6,-171 6,-254l0 -17c0,-17 -1,-37 -15,-39 -35,-6 -40,-7 -40,-12 0,-9 5,-10 15,-9 23,2 47,3 66,3 19,0 31,-2 54,-3 10,-1 15,0 15,9 0,6 -7,8 -35,12z"/>
  <path class="fil1" d="M4804 2305c-33,2 -33,8 -33,37l0 379 -36 8 -271 -367 0 359 -32 9 0 -388c0,-29 0,-36 -33,-37 -16,-1 -18,-4 -18,-9 0,-7 3,-12 12,-12 26,3 64,5 85,6l261 357 0 -305c0,-29 0,-36 -33,-37 -15,-1 -18,-3 -18,-9 0,-8 5,-12 12,-12 11,0 46,6 59,6 12,0 43,-6 53,-6 7,0 12,4 12,12 0,6 -3,8 -19,9z"/>
  <path class="fil1" d="M5017 2311c-14,2 -14,18 -14,30l0 382 -59 5 0 -386c0,-13 -1,-28 -12,-30 -24,-4 -32,-5 -32,-12 0,-7 3,-11 13,-10 18,2 48,3 63,3 15,0 39,-2 58,-3 10,-1 13,3 13,10 0,7 -10,9 -29,12z"/>
  <path class="fil1" d="M5521 2308c-14,2 -21,14 -27,27l-154 388 -41 5 -155 -385c-4,-9 -7,-22 -12,-29 -3,-5 -8,-8 -18,-9 -15,-1 -18,-3 -18,-9 0,-7 5,-12 12,-12 18,2 49,3 66,5 17,2 21,14 26,27l133 351 132 -333c4,-9 -2,-21 -13,-23 -29,-5 -33,-9 -33,-13 0,-6 2,-10 13,-9 19,2 38,3 53,3 15,0 27,-2 45,-3 11,-1 13,3 13,9 0,5 -5,7 -21,10z"/>
  <path class="fil1" d="M5853 2712c-1,18 -6,19 -22,19 -59,-2 -119,-8 -178,-5l-46 3 0 -387c0,-29 -1,-35 -34,-37 -15,-1 -18,-3 -18,-9 0,-7 4,-11 12,-11 9,0 18,2 27,4 12,2 34,4 50,4 56,0 110,-2 166,-4 15,-1 21,0 21,18 1,20 1,40 1,55 0,12 -2,13 -8,13 -13,0 -10,-47 -23,-55 -10,-6 -38,-8 -45,-8l-79 0c-12,0 -12,2 -12,7l0 180 83 0c10,0 32,-1 34,-14 6,-29 8,-34 15,-34 9,0 9,5 9,13 -2,18 -3,31 -3,45 0,14 2,28 3,45 1,8 0,13 -9,13 -7,0 -9,-5 -15,-34 -2,-13 -21,-15 -34,-15l-83 0 0 157c0,25 1,28 17,30 15,2 28,4 49,4 14,0 81,-1 90,-7 13,-8 10,-58 24,-58 6,0 9,2 9,13 0,15 -1,35 -2,55z"/>
  <path class="fil1" d="M6097 2309l-22 0c-15,0 -20,8 -20,18l0 186c9,1 14,2 26,2 96,0 107,-66 107,-114 0,-57 -18,-92 -91,-92zm185 428c-28,0 -49,-10 -65,-33l-27 -39 -87 -133c-13,3 -18,3 -32,3l-16 0 0 188 -59 7 0 -387c0,-29 -1,-36 -34,-37 -15,-1 -18,-4 -18,-9 0,-8 5,-12 12,-12 8,0 18,2 27,4 12,2 48,4 64,4 28,0 56,-3 84,-3 62,0 119,36 119,101 0,72 -59,116 -93,128 99,147 77,115 115,173 6,8 17,21 26,29 5,5 11,5 11,12 0,5 -17,5 -28,5z"/>
  <path class="fil1" d="M6496 2733c-29,0 -77,-8 -113,-33l12 -27c27,23 76,38 102,38 59,0 104,-29 104,-87 0,-31 -27,-49 -51,-63 -38,-22 -80,-38 -113,-69 -26,-23 -46,-51 -46,-100 0,-65 61,-109 135,-109 25,0 55,5 90,12 2,27 2,51 2,69 0,8 0,13 -8,13 -8,0 -10,-5 -15,-33 -4,-21 -26,-38 -73,-38 -51,0 -95,24 -95,79 0,17 10,27 22,39 19,18 51,31 75,43 29,14 59,29 82,52 20,21 33,51 33,88 0,79 -66,125 -143,125z"/>
  <path class="fil1" d="M6840 2311c-14,2 -14,18 -14,30l0 382 -59 5 0 -386c0,-13 -1,-28 -12,-30 -25,-4 -32,-5 -32,-12 0,-7 3,-11 13,-10 19,2 48,3 63,3 15,0 39,-2 58,-3 10,-1 13,3 13,10 0,7 -10,9 -29,12z"/>
  <path class="fil1" d="M7314 2322l-25 -5 -138 0 0 406 -59 6 0 -412c-36,-1 -109,0 -109,0 -32,0 -36,7 -39,23 -2,8 0,34 -12,34l-2 0c-8,0 -9,-5 -9,-13 0,-15 0,-35 1,-55 1,-18 6,-19 22,-18 20,1 37,2 65,2 83,3 167,2 249,2 22,0 46,-8 57,-8 3,0 9,1 9,8 0,11 -4,13 -10,30z"/>
  <path class="fil0" d="M7669 2729l-72 -177 -159 0 -70 171 -46 6 172 -395c4,-9 3,-15 -1,-24l-11 -23 57 0c5,0 9,3 11,8l178 428 -60 8zm-149 -370l-70 170 135 0 -65 -170zm31 -103l22 0 -91 -91c-10,-10 -17,-14 -23,-14 -11,0 -22,8 -22,23 0,9 4,14 27,28l88 54z"/>
  <path class="fil2" d="M2427 2124c-5,15 -17,39 -38,56l-17 -15c19,-12 33,-34 37,-46 9,-28 2,-53 -22,-61 -12,-4 -23,5 -34,15 -17,16 -31,35 -51,47 -15,9 -33,16 -58,7 -34,-11 -44,-52 -32,-90 4,-13 11,-28 22,-47 16,4 27,8 36,11 5,2 10,4 7,11 -2,5 -4,8 -22,5 -8,-1 -18,5 -26,28 -8,24 -3,47 20,55 16,5 40,-24 50,-35 11,-12 24,-26 39,-34 14,-7 31,-9 49,-3 40,13 52,56 39,97zm-242 45c-2,5 4,7 8,9l176 85 -13 37 -179 -86c-11,-5 -9,-5 -16,5 -3,5 -5,11 -11,8 -6,-3 -7,-8 -3,-14 5,-8 12,-22 15,-29 3,-7 8,-19 11,-28 3,-7 7,-9 13,-7 4,2 3,8 0,20zm78 189c22,14 31,38 17,62 -6,10 -13,18 -20,26 -2,2 -2,2 -4,1l-77 -50 6 -10c25,-41 53,-45 79,-29zm-105 -39c18,12 31,29 13,58l-7 12 -63 -41c-5,-3 -7,-4 -4,-9l3 -5c14,-22 36,-29 58,-14zm122 4c-31,-20 -59,-8 -80,15 2,-23 -7,-42 -28,-55 -23,-15 -59,-3 -78,29 -7,11 -12,22 -18,33 -4,7 -12,19 -17,24 -3,4 -7,8 -9,12 -3,5 -2,11 3,14 4,2 6,2 12,-8 8,-12 10,-10 19,-4l7 5 161 103c0,0 14,-27 17,-32 7,-11 14,-15 21,-27 24,-39 24,-87 -9,-109zm-361 254c-4,8 -3,19 -2,26l45 205 -20 18c-74,-51 -122,-79 -182,-122 -5,-3 -7,-6 -12,-3 -10,6 -13,5 -15,1 -3,-5 -2,-10 4,-13 9,-4 22,-13 29,-17 9,-5 16,-1 23,4l147 103 -39 -172c-2,-11 -23,9 -29,0 -3,-5 -1,-9 5,-12 11,-7 29,-26 39,-38 5,-5 11,-4 14,1 2,3 -2,10 -7,21zm-323 194c-13,6 -14,10 -9,27 5,21 50,189 50,189l-40 11 -44 -172 -45 172 -18 6 -101 -150 12 172 -35 10 -13 -196c-1,-20 -4,-25 -16,-25 -10,-1 -14,-4 -15,-9 -1,-8 6,-10 9,-10 10,0 35,1 43,1 7,0 11,1 17,9l104 159 47 -182c3,-9 8,-13 15,-15 9,-2 29,-10 38,-12 3,-1 12,-2 13,6 1,6 -3,7 -11,11zm-302 42c-5,1 -10,3 -14,9l-127 181 -26 -3c-13,-90 -23,-147 -33,-222 -1,-5 0,-9 -6,-11 -11,-3 -12,-6 -11,-11 1,-5 6,-8 12,-6 9,4 24,8 32,11 10,3 11,11 12,20l23 181 101 -145c6,-9 -22,-11 -20,-22 1,-6 6,-6 12,-4 9,3 44,6 53,6 7,0 10,3 9,9 -1,5 -5,6 -18,7zm-258 -69c-5,-2 -7,4 -9,8l-87 176 -35 -15 88 -179c6,-12 5,-9 -4,-16 -4,-3 -10,-6 -8,-12 3,-6 8,-7 14,-3 8,5 21,13 28,16 7,4 18,9 27,12 6,3 9,8 6,13 -2,4 -8,3 -20,-1zm-163 18c-35,46 -79,65 -126,27 -12,-10 -21,-18 -28,-27 -4,-5 -3,-6 2,-13l105 -140c5,-6 8,-6 13,-2l23 18c59,47 41,94 10,135zm35 22c40,-54 26,-122 -29,-165 -13,-11 -23,-17 -30,-23 -7,-5 -13,-9 -19,-14 -7,-5 -15,-13 -19,-18 -3,-4 -7,-8 -10,-11 -4,-3 -10,-4 -13,1 -4,6 1,9 6,14 10,9 8,11 1,20l-121 161c18,12 29,20 44,35 7,7 12,13 17,17 62,50 130,41 173,-16zm-144 -249c-3,-4 -9,-4 -16,-2l-205 58 -18 -19c44,-79 72,-131 110,-196 3,-5 6,-8 2,-13 -7,-10 -6,-13 -2,-16 4,-4 10,-2 13,3 5,9 14,22 18,29 6,9 2,16 -3,24l-94 158 167 -48c11,-3 -11,-23 -2,-30 4,-3 8,-1 12,5 5,8 10,17 15,23 5,6 9,11 15,18 5,6 5,11 0,14 -3,2 -5,1 -14,-7zm-139 -200c-2,0 -4,0 -12,1l-5 -16 -29 -62 -182 92 -20 -33 185 -94c-8,-18 -23,-50 -23,-50 -9,-18 -11,-12 -24,-8 -6,2 -12,2 -14,-2 -3,-7 0,-9 6,-12 7,-4 16,-8 25,-12 11,-5 14,0 17,8 4,10 8,18 14,31 17,40 37,80 56,119 3,7 9,14 13,20 1,2 3,4 3,5 1,2 3,8 -3,11 -3,2 -3,2 -6,1zm-324 -206c-5,-15 -9,-41 -3,-68l23 2c-8,21 -7,48 -3,60 9,28 29,43 54,35 12,-4 16,-18 18,-33 5,-23 4,-47 13,-69 7,-17 17,-33 42,-42 33,-12 66,14 79,52 4,13 7,29 10,51 -15,6 -26,10 -35,13 -5,2 -10,3 -12,-4 -2,-5 -1,-9 15,-18 7,-4 11,-15 4,-38 -8,-25 -25,-40 -48,-32 -16,6 -18,44 -20,59 -2,17 -4,35 -11,51 -7,14 -20,27 -38,33 -40,14 -74,-13 -87,-53zm1745 360c18,16 38,41 7,77 -3,3 -5,5 -7,7l-69 -63c-3,-2 -4,-4 0,-9l8 -9c23,-27 41,-21 61,-3zm167 56c-2,-2 -5,-2 -7,-1 -7,1 -16,2 -23,1 -33,-4 -63,-6 -96,-11 6,-20 7,-56 -19,-80 -27,-24 -62,-12 -84,14 -9,11 -18,23 -27,34 -5,6 -18,19 -23,23 -4,3 -8,6 -11,10 -4,4 -5,9 0,13 5,4 9,1 14,-5 10,-10 11,-8 20,0l146 134 22 -32 -66 -61 3 -3c4,-5 6,-7 9,-12l74 8c24,3 43,9 61,-13 5,-5 10,-16 7,-18zm-788 101c-1,7 6,13 12,7 20,-20 43,-60 59,-126 49,-205 13,-467 13,-467 -15,-111 86,-174 170,-215 30,-14 55,-35 70,-54 15,-18 29,-46 38,-76 26,-88 76,-189 190,-194 1,0 269,-20 467,-103 63,-27 99,-59 116,-82 5,-7 -3,-13 -9,-11 -185,74 -364,111 -559,113l-19 1c-68,2 -129,30 -172,75 -68,71 -51,195 -95,245 -45,49 -158,55 -226,133 -41,47 -64,113 -54,179 0,0 3,21 3,21 33,188 39,364 -3,556zm113 -69c-1,4 3,7 7,4 18,-13 35,-45 59,-94 28,-56 82,-231 85,-373 1,-55 -2,-110 -8,-164l-2 0c-43,4 -75,39 -76,80 0,5 1,11 1,16 15,176 -8,356 -66,529zm129 -134c-4,8 0,11 7,3 29,-33 61,-66 83,-105 66,-119 94,-249 94,-377 0,-28 -2,-55 -4,-82 -2,-6 -2,-11 0,-12 1,-2 5,-2 11,-2 28,-2 56,-6 83,-11 128,-23 254,-73 362,-158 36,-28 63,-64 91,-98 6,-8 3,-11 -5,-6 -160,112 -340,177 -525,187 -20,1 -47,11 -68,27 -13,10 -23,23 -26,37 -8,19 -11,40 -9,56 23,180 -10,365 -95,539zm396 -767c142,-28 309,-109 360,-145 45,-32 74,-54 84,-74 2,-4 -2,-8 -5,-6 -164,87 -342,138 -521,155 -5,1 -11,1 -17,2 -41,8 -71,45 -67,89 56,-3 111,-10 166,-21zm-693 -38c21,0 39,9 39,16 0,7 -17,16 -39,16 -21,0 -39,-9 -39,-16 0,-7 17,-16 39,-16zm-102 -63c-67,0 -63,-17 -64,-22 0,0 18,-34 65,-34 47,0 60,41 60,41 0,0 -11,15 -60,15zm102 188c-41,0 -75,-34 -75,-44 0,-10 150,-10 150,0 0,10 -34,44 -75,44zm100 -188c-49,0 -60,-15 -60,-15 0,0 12,-41 60,-41 47,0 64,34 64,34 -2,5 3,22 -64,22zm111 23c-3,-31 -7,-88 -8,-118 -86,0 -178,-66 -204,-107 -26,41 -117,107 -204,107 -1,30 -5,86 -8,118 -6,57 14,117 52,159 20,22 44,44 71,56 2,1 5,2 8,3l13 6c7,4 11,9 19,15 20,14 48,14 49,14 1,0 29,1 49,-14 7,-5 11,-11 19,-15l13 -6c3,-1 5,-2 8,-3 27,-12 51,-34 71,-56 38,-43 58,-102 52,-159zm-376 -402c-70,43 -91,44 -91,44 0,0 0,73 105,33 37,-14 149,-77 130,-104 -32,-44 -87,-8 -144,27zm98 96c-184,105 -248,8 -248,8 0,0 -70,80 46,111 122,33 204,-42 224,-56 36,-27 44,-101 -22,-63zm230 -96c70,43 94,44 94,44 0,0 -2,73 -108,33 -37,-14 -149,-77 -130,-104 32,-44 87,-8 144,27zm-98 96c184,105 251,8 251,8 0,0 67,80 -48,111 -122,33 -205,-42 -224,-56 -36,-27 -44,-101 22,-63zm284 136c-7,10 -43,52 -98,58 1,23 1,53 3,76 91,-12 129,-80 95,-135zm-94 201c-2,27 -9,53 -20,78 62,-11 101,-48 85,-125 -6,12 -32,41 -65,41l0 6zm-510 -65c2,-24 2,-54 3,-77 -55,-6 -91,-48 -98,-58 -34,54 5,122 95,135zm-2 60c-33,0 -62,-29 -68,-41 -16,77 26,113 88,125 -11,-25 -17,-51 -20,-78l0 -6zm253 -1570c-726,0 -1317,709 -1317,1580 0,871 591,1580 1317,1580 726,0 1317,-709 1317,-1580 0,-871 -591,-1580 -1317,-1580zm0 3114c-701,0 -1271,-688 -1271,-1534 0,-845 570,-1533 1271,-1533 701,0 1271,688 1271,1533 0,846 -570,1534 -1271,1534zm426 -1771c-4,67 75,-48 11,-139 -53,-75 -101,-176 -36,-267 1,0 149,-218 204,-421 18,-65 14,-113 7,-140 -2,-9 -12,-6 -14,0 -55,188 -135,348 -252,499 0,0 -11,15 -11,15 -40,53 -55,117 -46,178 17,117 142,176 137,275zm36 -342c-19,37 -8,83 28,106 33,-44 61,-91 86,-139 65,-126 103,-304 106,-366 3,-54 3,-91 -6,-110 -2,-4 -7,-4 -8,0 -32,180 -100,348 -196,496l-9 14zm77 186c-24,32 -34,108 12,126 31,12 128,2 170,-15 8,-3 6,-14 0,-16 -37,-16 -95,-30 -121,-36 85,-128 140,-281 140,-446 0,-45 -11,-88 -21,-131 -2,-10 -7,-10 -7,0 -10,193 -69,371 -173,519zm-928 -250c65,91 17,192 -36,267 -64,91 15,206 11,139 -5,-99 120,-158 137,-275 9,-61 -6,-125 -46,-178l-11 -15c-117,-151 -197,-310 -252,-499 -2,-6 -11,-9 -14,0 -7,27 -11,75 7,140 55,203 203,421 203,421zm-174 31c25,49 53,96 85,140 37,-24 48,-70 29,-107 -3,-5 -6,-9 -9,-14 -96,-148 -164,-316 -196,-496 -1,-4 -6,-4 -8,0 -9,20 -9,57 -6,110 3,62 41,240 106,366zm-25 277c-25,6 -83,21 -121,36 -6,3 -8,13 0,16 42,17 139,27 170,15 46,-18 36,-93 12,-126 -104,-148 -164,-326 -173,-519 0,-10 -5,-10 -7,0 -10,43 -21,86 -21,131 0,165 55,318 140,446zm538 790c0,0 2,-21 3,-21 10,-66 -13,-132 -54,-179 -68,-77 -181,-83 -226,-133 -45,-49 -27,-173 -96,-245 -43,-45 -104,-74 -172,-75l-19 -1c-195,-2 -374,-39 -559,-113 -6,-3 -14,3 -9,11 17,23 53,55 116,82 197,84 466,103 467,103 114,6 164,107 190,194 9,30 22,58 38,76 15,18 40,39 70,54 84,41 185,104 170,215 0,1 -36,263 13,467 16,66 39,106 59,126 6,6 14,0 12,-7 -42,-191 -36,-368 -3,-556zm-176 -43c0,-5 1,-11 1,-16 -1,-41 -33,-77 -76,-80l-2 0c-6,54 -9,109 -8,164 3,142 57,317 85,373 24,49 41,81 59,94 4,3 8,0 7,-4 -58,-174 -81,-354 -66,-529zm-158 -144c2,-16 -1,-37 -9,-56 -3,-14 -13,-27 -26,-37 -21,-17 -47,-26 -68,-27 -185,-10 -365,-75 -525,-187 -8,-6 -11,-2 -5,6 28,34 55,70 91,98 108,84 234,135 362,158 28,5 55,8 83,11 6,0 10,0 11,2 1,2 1,6 0,12 -2,27 -4,55 -4,82 0,127 29,257 94,377 22,39 53,72 83,105 7,7 11,5 7,-3 -85,-174 -118,-359 -95,-539zm-135 -207c4,-44 -26,-81 -67,-89 -6,0 -11,-1 -17,-2 -179,-17 -357,-69 -521,-155 -4,-2 -7,2 -5,6 10,20 39,42 84,74 51,37 218,117 360,145 55,11 110,18 166,21zm492 -1185c-42,48 -50,175 -55,233 -42,-38 -105,-93 -163,-95 -7,0 -16,1 -8,10 28,30 95,101 126,135 15,16 31,22 46,23 8,0 14,0 18,-1 3,0 11,-3 13,-5 5,-3 10,-7 15,-12 11,-12 19,-27 19,-49 0,-48 0,-180 0,-231 0,-13 -7,-13 -12,-8zm53 8c0,51 0,184 0,231 0,22 8,37 18,48 6,6 11,10 16,13 2,2 10,5 13,5 4,1 9,1 16,1 16,-1 33,-7 47,-23 31,-34 98,-105 126,-135 8,-9 0,-10 -8,-10 -58,2 -120,57 -162,95 -5,-57 -14,-184 -56,-233 -5,-5 -11,-5 -11,8z"/>
 </g>
</svg>
