<?xml version="1.0" encoding="UTF-8"?>
<!DOCTYPE svg PUBLIC "-//W3C//DTD SVG 1.1//EN" "http://www.w3.org/Graphics/SVG/1.1/DTD/svg11.dtd">
<svg version="1.2" width="100.01mm" height="30.01mm" viewBox="9854 9046 10001 3001" preserveAspectRatio="xMidYMid" fill-rule="evenodd" stroke-width="28.222" stroke-linejoin="round" xmlns="http://www.w3.org/2000/svg" xmlns:ooo="http://xml.openoffice.org/svg/export" xmlns:xlink="http://www.w3.org/1999/xlink" xmlns:presentation="http://sun.com/xmlns/staroffice/presentation" xmlns:smil="http://www.w3.org/2001/SMIL20/" xmlns:anim="urn:oasis:names:tc:opendocument:xmlns:animation:1.0" xml:space="preserve">
 <defs class="ClipPathGroup">
  <clipPath id="presentation_clip_path" clipPathUnits="userSpaceOnUse">
   <rect x="9854" y="9046" width="10001" height="3001"/>
  </clipPath>
  <clipPath id="presentation_clip_path_shrink" clipPathUnits="userSpaceOnUse">
   <rect x="9864" y="9049" width="9981" height="2995"/>
  </clipPath>
 </defs>
 <defs class="TextShapeIndex">
  <g ooo:slide="id1" ooo:id-list="id3 id4 id5 id6 id7 id8 id9 id10 id11 id12 id13 id14 id15 id16 id17 id18 id19 id20 id21"/>
 </defs>
 <defs class="EmbeddedBulletChars">
  <g id="bullet-char-template(57356)" transform="scale(0.00048828125,-0.00048828125)">
   <path d="M 580,1141 L 1163,571 580,0 -4,571 580,1141 Z"/>
  </g>
  <g id="bullet-char-template(57354)" transform="scale(0.00048828125,-0.00048828125)">
   <path d="M 8,1128 L 1137,1128 1137,0 8,0 8,1128 Z"/>
  </g>
  <g id="bullet-char-template(10146)" transform="scale(0.00048828125,-0.00048828125)">
   <path d="M 174,0 L 602,739 174,1481 1456,739 174,0 Z M 1358,739 L 309,1346 659,739 1358,739 Z"/>
  </g>
  <g id="bullet-char-template(10132)" transform="scale(0.00048828125,-0.00048828125)">
   <path d="M 2015,739 L 1276,0 717,0 1260,543 174,543 174,936 1260,936 717,1481 1274,1481 2015,739 Z"/>
  </g>
  <g id="bullet-char-template(10007)" transform="scale(0.00048828125,-0.00048828125)">
   <path d="M 0,-2 C -7,14 -16,27 -25,37 L 356,567 C 262,823 215,952 215,954 215,979 228,992 255,992 264,992 276,990 289,987 310,991 331,999 354,1012 L 381,999 492,748 772,1049 836,1024 860,1049 C 881,1039 901,1025 922,1006 886,937 835,863 770,784 769,783 710,716 594,584 L 774,223 C 774,196 753,168 711,139 L 727,119 C 717,90 699,76 672,76 641,76 570,178 457,381 L 164,-76 C 142,-110 111,-127 72,-127 30,-127 9,-110 8,-76 1,-67 -2,-52 -2,-32 -2,-23 -1,-13 0,-2 Z"/>
  </g>
  <g id="bullet-char-template(10004)" transform="scale(0.00048828125,-0.00048828125)">
   <path d="M 285,-33 C 182,-33 111,30 74,156 52,228 41,333 41,471 41,549 55,616 82,672 116,743 169,778 240,778 293,778 328,747 346,684 L 369,508 C 377,444 397,411 428,410 L 1163,1116 C 1174,1127 1196,1133 1229,1133 1271,1133 1292,1118 1292,1087 L 1292,965 C 1292,929 1282,901 1262,881 L 442,47 C 390,-6 338,-33 285,-33 Z"/>
  </g>
  <g id="bullet-char-template(9679)" transform="scale(0.00048828125,-0.00048828125)">
   <path d="M 813,0 C 632,0 489,54 383,161 276,268 223,411 223,592 223,773 276,916 383,1023 489,1130 632,1184 813,1184 992,1184 1136,1130 1245,1023 1353,916 1407,772 1407,592 1407,412 1353,268 1245,161 1136,54 992,0 813,0 Z"/>
  </g>
  <g id="bullet-char-template(8226)" transform="scale(0.00048828125,-0.00048828125)">
   <path d="M 346,457 C 273,457 209,483 155,535 101,586 74,649 74,723 74,796 101,859 155,911 209,963 273,989 346,989 419,989 480,963 531,910 582,859 608,796 608,723 608,648 583,586 532,535 482,483 420,457 346,457 Z"/>
  </g>
  <g id="bullet-char-template(8211)" transform="scale(0.00048828125,-0.00048828125)">
   <path d="M -4,459 L 1135,459 1135,606 -4,606 -4,459 Z"/>
  </g>
  <g id="bullet-char-template(61548)" transform="scale(0.00048828125,-0.00048828125)">
   <path d="M 173,740 C 173,903 231,1043 346,1159 462,1274 601,1332 765,1332 928,1332 1067,1274 1183,1159 1299,1043 1357,903 1357,740 1357,577 1299,437 1183,322 1067,206 928,148 765,148 601,148 462,206 346,322 231,437 173,577 173,740 Z"/>
  </g>
 </defs>
 <defs class="TextEmbeddedBitmaps"/>
 <g class="SlideGroup">
  <g>
   <g id="container-id1">
    <g id="id1" class="Slide" clip-path="url(#presentation_clip_path)">
     <g class="Page">
      <g class="com.sun.star.drawing.ClosedBezierShape">
       <g id="id3">
        <rect class="BoundingBox" stroke="none" fill="none" x="9854" y="9046" width="2502" height="3003"/>
        <path fill="rgb(111,10,25)" stroke="none" d="M 11104,9046 C 10415,9046 9854,9719 9854,10547 9854,11374 10415,12047 11104,12047 11794,12047 12355,11374 12355,10547 12355,9719 11794,9046 11104,9046 Z"/>
       </g>
      </g>
      <g class="com.sun.star.drawing.ClosedBezierShape">
       <g id="id4">
        <rect class="BoundingBox" stroke="none" fill="none" x="13333" y="9532" width="6516" height="1288"/>
        <path fill="rgb(111,10,25)" stroke="none" d="M 19158,10392 L 19158,10347 19576,10347 19576,10392 19158,10392 Z M 18227,10774 C 18217,10774 18214,10770 18214,10763 18214,10756 18214,10753 18219,10747 L 18831,9851 18358,9851 C 18299,9851 18267,9888 18261,9888 18258,9888 18252,9883 18254,9875 L 18268,9808 C 18270,9800 18274,9793 18281,9793 18286,9793 18302,9803 18420,9803 L 18961,9803 18970,9835 18378,10703 C 18485,10702 18822,10714 18969,10729 L 19328,9899 C 19339,9876 19337,9858 19325,9834 L 19305,9793 19422,9793 C 19430,9793 19437,9796 19440,9805 L 19848,10793 19729,10809 19543,10350 19380,9940 19203,10349 19022,10793 C 18864,10768 18315,10743 18227,10774 Z M 18181,9803 C 18181,9812 18179,9824 18147,9826 18065,9829 18061,9849 18061,9920 L 18061,10789 17992,10803 17354,9934 17352,9934 17352,10787 17297,10803 17297,9920 C 17297,9849 17294,9829 17212,9826 17180,9824 17180,9812 17180,9803 17180,9791 17185,9784 17196,9785 17256,9793 17370,9796 17415,9800 17418,9805 17424,9810 17429,9817 L 18004,10616 18004,9920 C 18004,9849 18001,9829 17919,9826 17887,9824 17885,9812 17885,9803 17885,9791 17892,9785 17903,9785 17928,9785 18009,9800 18040,9800 18068,9800 18140,9785 18163,9785 18173,9785 18181,9791 18181,9803 Z M 16956,10276 L 16957,10315 16946,10315 16643,10315 16643,10677 C 16643,10736 16645,10748 16690,10755 16725,10760 16755,10764 16805,10764 16855,10764 16937,10762 16975,10755 16999,10750 17024,10759 17035,10693 17048,10626 17060,10623 17069,10623 17080,10623 17080,10626 17080,10644 17080,10681 17078,10725 17076,10771 17074,10806 17067,10808 17035,10806 16989,10805 16908,10801 16844,10799 16789,10798 16670,10796 16624,10796 L 16526,10803 16526,9920 C 16526,9849 16520,9829 16438,9826 16407,9824 16407,9814 16407,9805 16407,9793 16414,9785 16424,9785 16435,9785 16456,9789 16485,9794 16514,9800 16563,9803 16602,9803 16649,9803 16782,9801 16837,9800 16902,9798 16939,9796 16985,9794 17017,9793 17024,9793 17026,9828 17028,9874 17030,9920 17030,9957 17030,9974 17030,9978 17019,9978 17010,9978 16998,9974 16985,9907 16975,9842 16950,9849 16925,9844 16908,9840 16876,9840 16868,9840 L 16681,9840 C 16654,9840 16643,9847 16643,9865 L 16643,10276 16946,10276 16956,10276 Z M 16268,9810 C 16268,9819 16253,9833 16207,9840 16172,9845 16168,9884 16168,9918 L 16168,10790 16051,10801 16051,9918 C 16051,9883 16045,9845 16015,9840 15956,9829 15947,9819 15947,9810 15947,9800 15951,9794 15968,9796 16011,9800 16079,9803 16113,9803 16146,9803 16204,9800 16246,9796 16264,9794 16268,9800 16268,9810 Z M 15834,10061 C 15834,10243 15699,10368 15494,10368 15450,10368 15391,10337 15391,10319 15391,10315 15397,10305 15402,10305 15409,10305 15446,10326 15486,10326 15658,10326 15717,10224 15717,10095 15717,9933 15646,9841 15409,9841 15366,9841 15359,9850 15359,9896 L 15359,10789 15242,10803 15242,9920 C 15242,9850 15238,9830 15156,9827 15124,9825 15122,9813 15122,9804 15122,9792 15129,9787 15140,9787 15151,9787 15172,9790 15201,9795 15229,9801 15286,9804 15325,9804 15386,9804 15480,9797 15541,9797 15676,9797 15834,9894 15834,10061 Z M 15079,10789 L 14671,9801 C 14668,9793 14660,9789 14653,9789 L 14536,9789 14555,9829 C 14568,9854 14570,9872 14559,9895 L 14167,10801 14253,10789 14415,10391 14792,10391 14960,10805 15079,10789 Z M 14773,10345 L 14434,10345 14610,9936 14773,10345 Z M 14104,10465 C 14104,10688 13899,10819 13680,10819 13598,10819 13429,10792 13333,10727 L 13358,10676 C 13425,10734 13603,10780 13680,10780 13853,10780 14015,10681 14015,10504 14015,10390 13929,10343 13818,10296 13728,10258 13627,10212 13534,10167 13398,10101 13352,10010 13349,9876 13346,9713 13455,9532 13756,9532 13827,9532 13936,9546 14026,9563 14030,9632 14032,9704 14032,9759 14032,9782 14032,9785 14019,9785 14009,9785 14004,9782 13989,9697 13977,9627 13886,9571 13743,9571 13606,9571 13430,9664 13430,9831 13430,10139 14104,10041 14104,10465 Z"/>
       </g>
      </g>
      <g class="com.sun.star.drawing.ClosedBezierShape">
       <g id="id5">
        <rect class="BoundingBox" stroke="none" fill="none" x="17129" y="11138" width="403" height="412"/>
        <path fill="rgb(111,10,25)" stroke="none" d="M 17305,11162 L 17253,11162 C 17237,11162 17230,11169 17230,11187 L 17230,11497 C 17230,11519 17231,11520 17245,11524 17264,11530 17286,11531 17315,11531 17428,11531 17471,11453 17471,11346 17471,11251 17445,11162 17305,11162 Z M 17309,11549 C 17290,11549 17251,11540 17219,11542 L 17176,11545 17176,11191 C 17176,11164 17176,11158 17146,11157 17132,11156 17129,11153 17129,11148 17129,11141 17132,11138 17140,11138 17147,11138 17156,11140 17164,11141 17175,11143 17196,11145 17211,11145 17225,11145 17239,11144 17253,11143 17271,11143 17290,11142 17321,11142 17442,11142 17531,11219 17531,11337 17531,11463 17448,11549 17309,11549 Z"/>
       </g>
      </g>
      <g class="com.sun.star.drawing.ClosedBezierShape">
       <g id="id6">
        <rect class="BoundingBox" stroke="none" fill="none" x="17610" y="11142" width="136" height="404"/>
        <path fill="rgb(111,10,25)" stroke="none" d="M 17718,11162 C 17706,11164 17706,11179 17706,11190 L 17706,11540 17652,11544 17652,11190 C 17652,11178 17651,11164 17640,11162 17617,11159 17610,11158 17610,11151 17610,11145 17613,11141 17623,11142 17640,11143 17667,11145 17680,11145 17693,11145 17716,11143 17733,11142 17742,11141 17745,11145 17745,11151 17745,11158 17736,11160 17718,11162 Z"/>
       </g>
      </g>
      <g class="com.sun.star.drawing.ClosedBezierShape">
       <g id="id7">
        <rect class="BoundingBox" stroke="none" fill="none" x="17954" y="11037" width="409" height="521"/>
        <path fill="rgb(111,10,25)" stroke="none" d="M 18120,11060 L 18089,11060 C 18077,11060 18071,11069 18071,11084 L 18071,11301 C 18082,11303 18087,11304 18101,11304 18213,11304 18230,11225 18230,11169 18230,11102 18204,11060 18120,11060 Z M 18359,11553 C 18356,11556 18338,11557 18326,11555 18300,11551 18283,11545 18264,11518 L 18234,11473 18138,11318 C 18123,11321 18120,11323 18090,11323 L 18071,11323 18071,11538 18014,11546 18014,11099 C 18014,11065 18013,11058 17974,11056 17958,11055 17955,11055 17955,11047 17955,11038 17960,11037 17966,11037 17973,11037 17984,11039 17998,11041 18012,11043 18043,11046 18062,11046 18095,11046 18128,11042 18159,11042 18230,11042 18290,11083 18290,11159 18290,11229 18236,11290 18192,11304 L 18280,11448 C 18305,11488 18319,11516 18357,11543 18362,11546 18363,11550 18359,11554 L 18359,11553 Z"/>
       </g>
      </g>
      <g class="com.sun.star.drawing.ClosedBezierShape">
       <g id="id8">
        <rect class="BoundingBox" stroke="none" fill="none" x="18403" y="11138" width="422" height="412"/>
        <path fill="rgb(111,10,25)" stroke="none" d="M 18613,11158 C 18528,11158 18462,11219 18462,11343 18462,11451 18512,11529 18613,11529 18721,11529 18764,11451 18764,11343 18764,11217 18691,11158 18613,11158 Z M 18613,11549 C 18492,11549 18403,11463 18403,11344 18403,11217 18508,11138 18613,11138 18723,11138 18824,11212 18824,11344 18824,11463 18734,11549 18613,11549 Z"/>
       </g>
      </g>
      <g class="com.sun.star.drawing.ClosedBezierShape">
       <g id="id9">
        <rect class="BoundingBox" stroke="none" fill="none" x="18910" y="11137" width="506" height="409"/>
        <path fill="rgb(111,10,25)" stroke="none" d="M 19398,11156 C 19363,11157 19364,11170 19367,11203 19372,11241 19408,11538 19408,11538 L 19348,11544 19311,11216 19179,11520 19155,11524 19006,11214 18981,11538 18930,11544 C 18961,11138 18957,11206 18959,11189 18962,11163 18959,11157 18928,11156 18914,11155 18911,11149 18911,11144 18911,11137 18917,11136 18923,11137 18940,11139 18979,11140 18994,11142 19004,11142 19008,11144 19015,11159 L 19170,11479 19305,11160 C 19311,11147 19319,11142 19330,11142 19346,11140 19384,11139 19400,11137 19407,11137 19415,11139 19415,11146 19415,11151 19413,11155 19398,11156 Z"/>
       </g>
      </g>
      <g class="com.sun.star.drawing.ClosedBezierShape">
       <g id="id10">
        <rect class="BoundingBox" stroke="none" fill="none" x="19483" y="11139" width="373" height="407"/>
        <path fill="rgb(111,10,25)" stroke="none" d="M 19664,11206 L 19600,11361 19723,11361 19664,11206 Z M 19800,11545 L 19734,11382 19588,11382 19525,11538 19483,11545 19640,11183 C 19643,11174 19643,11169 19638,11160 L 19629,11139 19681,11139 C 19685,11139 19689,11142 19691,11146 L 19855,11537 19800,11545 Z"/>
       </g>
      </g>
      <g class="com.sun.star.drawing.ClosedBezierShape">
       <g id="id11">
        <rect class="BoundingBox" stroke="none" fill="none" x="13306" y="11042" width="494" height="510"/>
        <path fill="rgb(111,10,25)" stroke="none" d="M 13767,11062 C 13751,11065 13751,11086 13750,11098 13750,11103 13746,11280 13736,11362 13728,11422 13703,11551 13559,11551 13413,11551 13376,11438 13366,11361 13360,11320 13358,11196 13358,11132 13358,11111 13357,11098 13357,11098 13356,11083 13356,11064 13343,11062 13310,11057 13306,11056 13306,11051 13306,11042 13311,11042 13320,11042 13341,11044 13370,11045 13387,11045 13404,11045 13427,11044 13448,11042 13458,11042 13463,11042 13463,11051 13463,11056 13456,11058 13430,11062 13415,11065 13412,11080 13413,11098 13413,11098 13415,11260 13419,11340 13427,11465 13480,11529 13559,11529 13655,11529 13700,11450 13707,11346 13713,11264 13713,11189 13713,11114 L 13713,11098 C 13713,11083 13712,11064 13698,11062 13666,11057 13662,11056 13662,11051 13662,11042 13667,11042 13676,11042 13697,11044 13719,11045 13736,11045 13753,11045 13764,11044 13785,11042 13794,11042 13799,11042 13799,11051 13799,11056 13793,11058 13767,11062 Z"/>
       </g>
      </g>
      <g class="com.sun.star.drawing.ClosedBezierShape">
       <g id="id12">
        <rect class="BoundingBox" stroke="none" fill="none" x="13859" y="11137" width="405" height="410"/>
        <path fill="rgb(111,10,25)" stroke="none" d="M 14246,11156 C 14216,11157 14216,11163 14216,11190 L 14216,11225 14216,11537 14183,11544 13935,11209 13935,11537 13906,11545 13906,11203 13906,11190 C 13906,11163 13906,11157 13875,11156 13860,11155 13859,11152 13859,11147 13859,11141 13862,11136 13870,11137 13893,11139 13929,11141 13948,11142 L 14186,11470 14186,11225 14186,11190 C 14186,11163 14186,11157 14156,11156 14142,11155 14139,11153 14139,11147 14139,11140 14143,11137 14150,11137 14160,11137 14192,11142 14204,11142 14215,11142 14243,11137 14253,11137 14259,11137 14263,11140 14263,11147 14263,11153 14260,11155 14246,11156 Z"/>
       </g>
      </g>
      <g class="com.sun.star.drawing.ClosedBezierShape">
       <g id="id13">
        <rect class="BoundingBox" stroke="none" fill="none" x="14333" y="11142" width="137" height="404"/>
        <path fill="rgb(111,10,25)" stroke="none" d="M 14441,11162 C 14427,11164 14427,11179 14427,11190 L 14427,11540 14374,11544 14374,11190 C 14374,11178 14373,11164 14362,11162 14340,11159 14333,11158 14333,11151 14333,11145 14336,11141 14345,11142 14362,11143 14388,11145 14402,11145 14415,11145 14439,11143 14456,11142 14465,11141 14468,11145 14468,11151 14468,11158 14459,11160 14441,11162 Z"/>
       </g>
      </g>
      <g class="com.sun.star.drawing.ClosedBezierShape">
       <g id="id14">
        <rect class="BoundingBox" stroke="none" fill="none" x="14512" y="11136" width="410" height="409"/>
        <path fill="rgb(111,10,25)" stroke="none" d="M 14902,11159 C 14888,11161 14881,11171 14876,11183 L 14736,11538 14698,11543 14556,11190 C 14553,11182 14550,11170 14545,11163 14542,11159 14538,11157 14529,11156 14515,11155 14512,11153 14512,11147 14512,11141 14516,11135 14523,11137 14540,11139 14568,11139 14583,11141 14599,11142 14603,11153 14607,11165 L 14728,11486 14849,11182 C 14853,11174 14847,11163 14837,11161 14810,11157 14807,11153 14807,11149 14807,11144 14809,11140 14819,11141 14836,11142 14853,11144 14867,11144 14880,11144 14891,11142 14909,11141 14919,11140 14921,11144 14921,11149 14921,11153 14917,11156 14902,11159 Z"/>
       </g>
      </g>
      <g class="com.sun.star.drawing.ClosedBezierShape">
       <g id="id15">
        <rect class="BoundingBox" stroke="none" fill="none" x="14932" y="11138" width="275" height="410"/>
        <path fill="rgb(111,10,25)" stroke="none" d="M 15205,11529 C 15204,11545 15199,11547 15185,11546 15130,11544 15076,11538 15021,11542 L 14979,11545 14979,11190 C 14979,11163 14978,11158 14948,11156 14934,11155 14932,11153 14932,11148 14932,11141 14935,11138 14942,11138 14950,11138 14959,11140 14967,11141 14978,11143 14998,11145 15013,11145 15064,11145 15113,11143 15165,11141 15179,11140 15184,11141 15185,11158 15186,11176 15186,11195 15186,11209 15186,11220 15184,11221 15179,11221 15167,11221 15169,11177 15158,11169 15148,11164 15121,11162 15116,11162 L 15044,11162 C 15033,11162 15033,11164 15033,11168 L 15033,11333 15108,11333 C 15117,11333 15137,11332 15139,11321 15144,11294 15146,11289 15153,11289 15161,11289 15162,11294 15161,11301 15160,11318 15158,11330 15158,11342 15158,11355 15160,11368 15161,11384 15162,11391 15161,11396 15153,11396 15146,11396 15144,11391 15139,11365 15137,11353 15120,11352 15108,11352 L 15033,11352 15033,11495 C 15033,11518 15033,11521 15048,11523 15061,11525 15074,11526 15093,11526 15106,11526 15168,11526 15177,11520 15189,11512 15186,11467 15198,11467 15204,11467 15206,11469 15206,11479 15206,11493 15206,11511 15205,11529 Z"/>
       </g>
      </g>
      <g class="com.sun.star.drawing.ClosedBezierShape">
       <g id="id16">
        <rect class="BoundingBox" stroke="none" fill="none" x="15287" y="11138" width="337" height="417"/>
        <path fill="rgb(111,10,25)" stroke="none" d="M 15427,11160 L 15407,11160 C 15393,11160 15388,11167 15388,11177 L 15388,11347 C 15397,11348 15401,11348 15412,11348 15500,11348 15510,11288 15510,11244 15510,11192 15493,11160 15427,11160 Z M 15597,11553 C 15572,11553 15553,11543 15538,11522 L 15512,11486 15433,11364 C 15421,11367 15417,11367 15403,11367 L 15388,11367 15388,11539 15335,11545 15335,11191 C 15335,11164 15334,11158 15304,11157 15290,11156 15287,11153 15287,11148 15287,11141 15292,11138 15298,11138 15306,11138 15315,11140 15323,11141 15334,11143 15367,11145 15381,11145 15407,11145 15433,11142 15458,11142 15514,11142 15568,11174 15568,11234 15568,11300 15514,11340 15483,11351 15574,11487 15554,11457 15589,11510 15594,11518 15604,11529 15613,11537 15618,11541 15623,11542 15623,11548 15623,11553 15607,11553 15597,11553 Z"/>
       </g>
      </g>
      <g class="com.sun.star.drawing.ClosedBezierShape">
       <g id="id17">
        <rect class="BoundingBox" stroke="none" fill="none" x="15688" y="11138" width="236" height="412"/>
        <path fill="rgb(111,10,25)" stroke="none" d="M 15792,11549 C 15766,11549 15721,11541 15688,11519 L 15699,11494 C 15723,11515 15768,11529 15792,11529 15846,11529 15888,11502 15888,11450 15888,11421 15863,11405 15841,11392 15806,11372 15767,11358 15737,11330 15713,11309 15695,11283 15695,11237 15695,11178 15751,11138 15820,11138 15842,11138 15870,11142 15902,11148 15904,11173 15904,11195 15904,11212 15904,11219 15904,11224 15896,11224 15889,11224 15887,11219 15883,11193 15879,11174 15859,11159 15816,11159 15768,11159 15728,11181 15728,11231 15728,11246 15737,11255 15749,11266 15766,11284 15796,11296 15818,11306 15845,11319 15872,11333 15893,11354 15911,11373 15923,11401 15923,11435 15923,11507 15863,11549 15792,11549 Z"/>
       </g>
      </g>
      <g class="com.sun.star.drawing.ClosedBezierShape">
       <g id="id18">
        <rect class="BoundingBox" stroke="none" fill="none" x="15999" y="11142" width="137" height="404"/>
        <path fill="rgb(111,10,25)" stroke="none" d="M 16107,11162 C 16095,11164 16095,11179 16095,11190 L 16095,11540 16041,11544 16041,11190 C 16041,11178 16040,11164 16030,11162 16006,11159 15999,11158 15999,11151 15999,11145 16002,11141 16011,11142 16029,11143 16056,11145 16069,11145 16083,11145 16105,11143 16122,11142 16131,11141 16134,11145 16134,11151 16134,11158 16125,11160 16107,11162 Z"/>
       </g>
      </g>
      <g class="com.sun.star.drawing.ClosedBezierShape">
       <g id="id19">
        <rect class="BoundingBox" stroke="none" fill="none" x="16181" y="11138" width="370" height="408"/>
        <path fill="rgb(111,10,25)" stroke="none" d="M 16540,11173 L 16518,11169 16392,11169 16392,11540 16338,11545 16338,11169 C 16304,11168 16238,11169 16238,11169 16208,11169 16205,11175 16202,11190 16200,11197 16202,11221 16191,11221 L 16190,11221 C 16183,11221 16181,11217 16181,11209 16181,11195 16181,11177 16182,11158 16183,11141 16188,11140 16202,11141 16220,11142 16236,11143 16261,11143 16337,11146 16414,11145 16490,11145 16509,11145 16532,11138 16542,11138 16545,11138 16550,11139 16550,11145 16550,11155 16546,11157 16540,11173 Z"/>
       </g>
      </g>
      <g class="com.sun.star.drawing.ClosedBezierShape">
       <g id="id20">
        <rect class="BoundingBox" stroke="none" fill="none" x="16547" y="11016" width="374" height="530"/>
        <path fill="rgb(111,10,25)" stroke="none" d="M 16865,11545 L 16799,11383 16653,11383 16590,11539 16547,11545 16705,11183 C 16708,11174 16708,11169 16703,11160 L 16693,11139 16746,11139 C 16750,11139 16754,11142 16756,11146 L 16920,11538 16865,11545 Z M 16729,11206 L 16665,11362 16788,11362 16729,11206 Z M 16757,11112 L 16777,11112 16694,11029 C 16685,11020 16679,11016 16672,11016 16662,11016 16652,11024 16652,11037 16652,11046 16656,11050 16677,11063 L 16757,11112 Z"/>
       </g>
      </g>
      <g class="com.sun.star.drawing.ClosedBezierShape">
       <g id="id21">
        <rect class="BoundingBox" stroke="none" fill="none" x="9899" y="9101" width="2411" height="2892"/>
        <path fill="rgb(255,255,255)" stroke="none" d="M 12073,10992 C 12069,11006 12058,11027 12039,11043 L 12023,11029 C 12041,11018 12054,10998 12058,10987 12066,10961 12060,10938 12037,10931 12026,10927 12016,10935 12006,10945 11991,10959 11978,10977 11960,10987 11945,10996 11929,11001 11907,10994 11876,10984 11866,10947 11877,10912 11881,10900 11888,10886 11897,10868 11911,10872 11922,10876 11930,10878 11935,10880 11939,10882 11937,10889 11935,10893 11933,10895 11917,10893 11910,10892 11900,10898 11893,10919 11886,10941 11890,10962 11911,10969 11926,10974 11948,10947 11957,10937 11967,10926 11979,10914 11993,10907 12005,10900 12021,10898 12038,10904 12074,10916 12085,10955 12073,10992 Z M 11852,11033 C 11851,11038 11856,11039 11860,11041 L 12021,11119 12009,11152 11845,11074 C 11835,11069 11837,11069 11831,11078 11828,11082 11826,11088 11821,11086 11816,11083 11815,11079 11818,11073 11822,11065 11828,11053 11831,11046 11834,11040 11838,11029 11841,11021 11844,11014 11848,11012 11853,11015 11857,11017 11856,11022 11852,11033 Z M 11923,11206 C 11944,11219 11952,11241 11939,11263 11933,11271 11927,11279 11920,11286 11918,11288 11918,11288 11916,11287 L 11846,11242 11852,11232 C 11874,11195 11900,11191 11923,11206 Z M 11828,11171 C 11845,11182 11856,11197 11840,11223 L 11834,11234 11776,11196 C 11771,11193 11769,11193 11772,11188 L 11775,11184 C 11787,11163 11807,11157 11828,11171 Z M 11939,11174 C 11911,11156 11886,11167 11866,11187 11868,11166 11860,11149 11841,11137 11819,11123 11787,11134 11769,11164 11763,11174 11758,11184 11752,11194 11748,11201 11741,11212 11737,11216 11734,11219 11731,11223 11728,11227 11725,11232 11727,11237 11731,11239 11735,11242 11736,11241 11742,11232 11749,11221 11751,11223 11760,11229 L 11767,11233 11913,11327 C 11913,11327 11926,11303 11929,11298 11935,11289 11942,11285 11948,11274 11970,11238 11970,11194 11939,11174 Z M 11609,11407 C 11605,11414 11606,11424 11608,11430 L 11648,11618 11630,11634 C 11563,11587 11518,11562 11463,11522 11459,11519 11457,11516 11452,11519 11443,11525 11441,11524 11438,11520 11435,11516 11436,11511 11442,11508 11450,11504 11462,11496 11469,11493 11477,11488 11483,11492 11490,11496 L 11624,11590 11588,11433 C 11586,11423 11567,11441 11562,11433 11559,11429 11561,11425 11567,11422 11577,11415 11594,11398 11603,11387 11607,11382 11613,11383 11616,11387 11617,11390 11614,11397 11609,11407 Z M 11314,11584 C 11302,11590 11301,11593 11305,11609 11310,11628 11351,11782 11351,11782 L 11314,11791 11274,11634 11233,11791 11216,11797 11124,11659 11134,11816 11102,11825 11090,11646 C 11089,11628 11086,11624 11075,11623 11066,11622 11062,11619 11062,11615 11061,11607 11067,11606 11070,11606 11079,11605 11102,11607 11110,11606 11116,11606 11120,11607 11125,11614 L 11220,11760 11263,11594 C 11266,11586 11271,11582 11277,11580 11285,11578 11304,11571 11312,11568 11315,11568 11323,11567 11324,11574 11325,11579 11321,11580 11314,11584 Z M 11038,11623 C 11033,11623 11029,11626 11025,11631 L 10909,11796 10885,11793 C 10872,11710 10864,11659 10855,11590 10854,11586 10854,11582 10849,11580 10839,11577 10838,11575 10839,11570 10840,11565 10844,11563 10850,11565 10858,11568 10872,11572 10879,11575 10888,11578 10889,11585 10890,11593 L 10911,11759 11003,11626 C 11009,11618 10983,11616 10985,11606 10986,11601 10990,11600 10997,11602 11004,11605 11036,11608 11045,11608 11051,11608 11054,11610 11054,11616 11053,11620 11049,11621 11038,11623 Z M 10801,11560 C 10796,11558 10795,11564 10793,11568 L 10714,11729 10682,11715 10762,11552 C 10767,11541 10767,11543 10758,11537 10754,11534 10749,11531 10751,11526 10754,11521 10758,11520 10764,11523 10771,11528 10783,11535 10789,11538 10795,11541 10806,11546 10814,11549 10819,11552 10821,11556 10819,11561 10817,11565 10812,11564 10801,11560 Z M 10652,11576 C 10620,11619 10580,11636 10537,11601 10525,11592 10517,11585 10512,11577 10508,11572 10509,11572 10513,11565 L 10610,11438 C 10614,11432 10617,11432 10622,11436 L 10643,11453 C 10697,11496 10680,11539 10652,11576 Z M 10685,11597 C 10721,11548 10708,11485 10658,11445 10646,11436 10638,11429 10631,11424 10625,11420 10619,11415 10613,11411 10607,11406 10599,11399 10596,11395 10593,11391 10590,11387 10586,11385 10582,11382 10577,11381 10574,11386 10570,11391 10575,11394 10580,11399 10589,11407 10588,11408 10581,11417 L 10470,11564 C 10487,11576 10497,11582 10511,11596 10517,11602 10522,11608 10526,11611 10583,11657 10645,11649 10685,11597 Z M 10553,11369 C 10550,11366 10545,11365 10539,11367 L 10352,11420 10336,11402 C 10376,11330 10402,11282 10436,11223 10439,11218 10441,11216 10438,11211 10432,11202 10433,11200 10436,11197 10440,11193 10445,11194 10448,11200 10453,11208 10461,11220 10465,11227 10470,11235 10467,11241 10463,11248 L 10377,11392 10529,11348 C 10539,11345 10519,11327 10527,11321 10531,11318 10535,11320 10539,11325 10543,11333 10548,11341 10552,11346 10556,11352 10560,11356 10566,11363 10570,11368 10570,11372 10566,11376 10564,11377 10561,11377 10553,11369 Z M 10427,11186 C 10425,11187 10423,11186 10416,11187 L 10412,11173 10385,11116 10219,11201 10200,11170 10369,11084 C 10362,11068 10348,11039 10348,11039 10340,11022 10338,11028 10326,11031 10321,11033 10315,11034 10313,11030 10310,11024 10313,11021 10318,11018 10325,11015 10333,11011 10341,11007 10351,11003 10354,11007 10357,11015 10361,11024 10364,11031 10369,11043 10385,11080 10403,11116 10420,11152 10424,11159 10428,11165 10432,11170 10434,11172 10435,11174 10436,11175 10436,11177 10438,11182 10433,11185 10430,11187 10429,11187 10427,11186 Z M 10131,10998 C 10126,10985 10122,10961 10128,10936 L 10149,10938 C 10142,10958 10143,10982 10146,10993 10155,11019 10173,11033 10195,11025 10206,11021 10210,11008 10212,10995 10216,10974 10216,10951 10224,10932 10231,10916 10240,10902 10262,10894 10293,10883 10323,10906 10334,10941 10338,10953 10341,10968 10344,10988 10330,10994 10320,10997 10311,11000 10307,11002 10302,11003 10300,10996 10299,10992 10299,10988 10314,10980 10320,10977 10324,10966 10317,10945 10310,10923 10294,10909 10273,10916 10259,10921 10257,10956 10255,10970 10254,10985 10252,11002 10245,11017 10239,11030 10227,11041 10210,11047 10174,11060 10143,11035 10131,10998 Z M 11727,11328 C 11743,11342 11761,11366 11733,11398 11730,11401 11729,11403 11727,11404 L 11664,11347 C 11662,11345 11661,11343 11664,11339 L 11671,11331 C 11692,11306 11708,11311 11727,11328 Z M 11879,11379 C 11877,11377 11874,11377 11872,11377 11866,11379 11858,11379 11851,11379 11822,11375 11794,11373 11764,11369 11770,11351 11771,11318 11747,11296 11723,11274 11691,11285 11671,11308 11662,11318 11654,11330 11645,11340 11641,11346 11629,11357 11625,11361 11621,11364 11617,11367 11614,11370 11611,11374 11610,11378 11614,11382 11619,11386 11622,11383 11627,11378 11636,11369 11638,11370 11645,11377 L 11779,11500 11799,11470 11738,11414 11741,11411 C 11744,11407 11746,11405 11749,11400 L 11816,11408 C 11838,11410 11855,11416 11872,11396 11877,11391 11881,11381 11879,11379 Z M 11159,11471 C 11158,11477 11164,11483 11170,11477 11188,11459 11210,11422 11224,11362 11269,11175 11236,10935 11236,10935 11222,10833 11314,10775 11391,10738 11418,10725 11441,10705 11455,10689 11469,10672 11481,10647 11489,10620 11513,10539 11559,10447 11663,10442 11664,10442 11909,10424 12089,10348 12147,10323 12180,10294 12196,10273 12200,10266 12193,10261 12187,10263 12018,10331 11855,10365 11676,10367 L 11659,10367 C 11597,10369 11542,10395 11502,10436 11440,10501 11456,10615 11415,10660 11374,10705 11271,10710 11209,10781 11171,10824 11150,10884 11160,10944 L 11162,10963 C 11192,11135 11197,11296 11159,11471 Z M 11263,11408 C 11261,11412 11265,11414 11269,11412 11285,11400 11301,11371 11323,11326 11348,11275 11398,11115 11400,10985 11401,10935 11399,10885 11393,10836 L 11391,10836 C 11352,10840 11322,10872 11322,10909 11322,10914 11323,10919 11323,10924 11336,11085 11315,11249 11263,11408 Z M 11380,11286 C 11376,11294 11380,11296 11386,11289 11413,11259 11442,11229 11462,11193 11521,11084 11548,10965 11548,10848 11548,10823 11546,10798 11544,10773 11543,10768 11543,10763 11544,10762 11545,10760 11548,10760 11554,10760 11580,10758 11605,10755 11630,10750 11747,10730 11862,10684 11961,10606 11994,10581 12019,10548 12045,10517 12050,10510 12048,10506 12041,10511 11894,10614 11730,10673 11561,10683 11542,10683 11518,10692 11499,10708 11487,10717 11478,10729 11475,10741 11468,10759 11465,10778 11467,10793 11488,10958 11457,11126 11380,11286 Z M 11742,10584 C 11872,10559 12025,10485 12071,10452 12112,10423 12139,10402 12148,10384 12150,10380 12147,10377 12143,10379 11993,10458 11831,10505 11667,10521 11662,10521 11657,10522 11652,10522 11614,10530 11587,10564 11590,10604 11641,10601 11692,10594 11742,10584 Z M 11109,10550 C 11128,10550 11144,10558 11144,10565 11144,10571 11128,10580 11109,10580 11089,10580 11073,10571 11073,10565 11073,10558 11089,10550 11109,10550 Z M 11015,10492 C 10954,10492 10958,10477 10956,10472 10956,10472 10973,10441 11016,10441 11058,10441 11070,10479 11070,10479 11070,10479 11060,10492 11015,10492 Z M 11109,10664 C 11071,10664 11040,10633 11040,10624 11040,10615 11177,10615 11177,10624 11177,10633 11147,10664 11109,10664 Z M 11200,10492 C 11155,10492 11146,10479 11146,10479 11146,10479 11157,10441 11200,10441 11243,10441 11259,10472 11259,10472 11257,10477 11261,10492 11200,10492 Z M 11301,10514 C 11299,10485 11295,10433 11294,10406 11215,10406 11131,10346 11108,10308 11084,10346 11001,10406 10922,10406 10921,10433 10917,10485 10914,10514 10909,10566 10927,10620 10962,10659 10980,10679 11002,10699 11027,10710 11029,10711 11032,10712 11034,10713 L 11046,10718 C 11053,10722 11056,10727 11063,10732 11081,10745 11107,10744 11108,10744 11109,10744 11134,10745 11152,10732 11159,10727 11163,10722 11170,10718 L 11181,10713 C 11184,10712 11186,10711 11188,10710 11213,10699 11235,10679 11253,10659 11288,10620 11307,10566 11301,10514 Z M 10957,10146 C 10893,10185 10874,10186 10874,10186 10874,10186 10874,10253 10970,10217 11004,10204 11106,10146 11089,10122 11060,10080 11010,10114 10957,10146 Z M 11047,10234 C 10880,10330 10820,10241 10820,10241 10820,10241 10756,10314 10863,10343 10974,10373 11049,10305 11067,10292 11101,10267 11108,10199 11047,10234 Z M 11258,10146 C 11322,10185 11344,10186 11344,10186 11344,10186 11342,10253 11245,10217 11212,10204 11109,10146 11126,10122 11155,10080 11206,10114 11258,10146 Z M 11168,10234 C 11336,10330 11397,10241 11397,10241 11397,10241 11458,10314 11353,10343 11241,10373 11166,10305 11148,10292 11115,10267 11108,10199 11168,10234 Z M 11427,10358 C 11421,10367 11388,10406 11338,10411 11339,10432 11339,10459 11340,10481 11423,10470 11458,10408 11427,10358 Z M 11342,10542 C 11339,10566 11333,10590 11323,10613 11380,10602 11416,10569 11401,10499 11396,10510 11372,10536 11342,10536 L 11342,10542 Z M 10875,10483 C 10877,10461 10877,10434 10878,10413 10826,10407 10794,10369 10787,10359 10756,10409 10791,10471 10875,10483 Z M 10874,10537 C 10843,10537 10816,10511 10811,10500 10796,10571 10835,10604 10892,10614 10882,10591 10876,10567 10874,10543 L 10874,10537 Z M 11105,9101 C 10440,9101 9900,9749 9900,10547 9900,11344 10440,11992 11105,11992 11769,11992 12309,11344 12309,10547 12309,9749 11769,9101 11105,9101 Z M 11105,11949 C 10463,11949 9942,11320 9942,10547 9942,9773 10463,9144 11105,9144 11746,9144 12267,9773 12267,10547 12267,11320 11746,11949 11105,11949 Z M 11494,10330 C 11491,10392 11563,10286 11504,10203 11456,10135 11412,10042 11471,9958 11472,9958 11607,9759 11657,9573 11673,9514 11670,9470 11663,9446 11661,9438 11653,9440 11651,9446 11601,9618 11528,9764 11421,9901 L 11411,9915 C 11374,9963 11361,10022 11369,10078 11384,10186 11499,10240 11494,10330 Z M 11527,10017 C 11510,10051 11520,10093 11552,10115 11582,10074 11608,10031 11631,9987 11690,9872 11725,9708 11727,9652 11730,9603 11730,9569 11722,9551 11720,9547 11715,9547 11715,9551 11685,9716 11623,9869 11535,10004 L 11527,10017 Z M 11597,10188 C 11576,10217 11566,10286 11608,10303 11637,10314 11725,10304 11764,10289 11771,10286 11770,10276 11764,10274 11730,10260 11677,10246 11654,10241 11732,10124 11782,9983 11782,9832 11782,9792 11771,9752 11762,9713 11760,9704 11756,9704 11756,9713 11747,9889 11693,10052 11597,10188 Z M 10748,9958 C 10807,10042 10763,10135 10715,10203 10656,10286 10728,10392 10725,10330 10720,10240 10836,10186 10851,10078 10859,10022 10846,9963 10808,9915 L 10798,9901 C 10692,9764 10618,9618 10568,9446 10566,9440 10558,9438 10556,9446 10549,9470 10546,9514 10562,9573 10612,9759 10747,9958 10748,9958 Z M 10588,9987 C 10611,10031 10637,10074 10665,10116 10699,10093 10709,10051 10692,10017 10689,10013 10686,10009 10684,10004 10596,9869 10534,9716 10505,9551 10504,9547 10499,9547 10498,9551 10489,9569 10489,9603 10492,9652 10494,9708 10529,9872 10588,9987 Z M 10565,10241 C 10542,10246 10489,10260 10455,10274 10449,10276 10448,10286 10455,10289 10494,10304 10582,10314 10611,10303 10653,10286 10644,10217 10622,10188 10526,10052 10472,9889 10464,9713 10463,9704 10459,9704 10457,9713 10448,9752 10438,9792 10438,9832 10438,9983 10488,10124 10565,10241 Z M 11058,10963 C 11058,10963 11060,10944 11061,10944 11070,10884 11049,10824 11012,10781 10950,10710 10846,10705 10804,10660 10764,10615 10779,10501 10717,10436 10677,10395 10622,10369 10560,10367 L 10543,10367 C 10365,10365 10201,10331 10032,10263 10026,10261 10019,10266 10024,10273 10039,10294 10072,10323 10130,10348 10310,10424 10556,10442 10556,10442 10661,10447 10706,10539 10730,10620 10738,10647 10751,10672 10765,10689 10778,10705 10801,10725 10828,10738 10906,10775 10998,10833 10985,10935 10985,10935 10952,11175 10996,11362 11011,11422 11032,11459 11050,11477 11056,11483 11063,11477 11061,11471 11023,11296 11028,11135 11058,10963 Z M 10897,10924 C 10898,10919 10898,10914 10898,10909 10898,10872 10868,10840 10828,10836 L 10826,10836 C 10820,10885 10818,10935 10819,10985 10821,11115 10872,11275 10897,11326 10919,11371 10935,11400 10952,11412 10955,11414 10959,11412 10958,11408 10905,11249 10884,11085 10897,10924 Z M 10752,10793 C 10754,10778 10752,10759 10744,10741 10741,10729 10732,10717 10721,10708 10701,10692 10677,10683 10659,10683 10490,10673 10325,10614 10179,10511 10171,10506 10169,10510 10174,10517 10200,10548 10225,10581 10258,10606 10357,10684 10472,10730 10589,10750 10614,10755 10640,10758 10665,10760 10671,10760 10674,10760 10675,10762 10676,10763 10677,10768 10675,10773 10673,10798 10672,10823 10672,10848 10672,10965 10698,11084 10758,11193 10777,11229 10806,11259 10834,11289 10840,11296 10844,11294 10840,11286 10762,11126 10732,10958 10752,10793 Z M 10629,10604 C 10632,10564 10605,10530 10568,10522 10562,10522 10557,10521 10552,10521 10388,10505 10226,10458 10076,10379 10072,10377 10069,10380 10071,10384 10080,10402 10107,10423 10148,10452 10195,10485 10347,10559 10477,10584 10527,10594 10578,10601 10629,10604 Z M 11080,9519 C 11041,9563 11034,9680 11030,9732 10991,9697 10934,9646 10881,9645 10875,9645 10867,9646 10874,9654 10900,9682 10961,9747 10989,9778 11003,9793 11017,9798 11031,9799 11039,9799 11044,9799 11048,9798 11050,9798 11058,9795 11059,9794 11064,9791 11069,9787 11073,9783 11084,9772 11091,9758 11091,9738 11091,9694 11091,9573 11091,9526 11091,9514 11084,9514 11080,9519 Z M 11129,9526 C 11129,9573 11129,9694 11129,9738 11129,9758 11136,9772 11145,9782 11151,9787 11156,9791 11160,9794 11162,9795 11169,9798 11172,9798 11176,9799 11181,9799 11187,9799 11202,9798 11217,9793 11230,9778 11259,9747 11320,9682 11345,9654 11353,9646 11345,9645 11338,9645 11285,9646 11229,9697 11190,9732 11185,9680 11177,9563 11139,9519 11134,9514 11129,9514 11129,9526 Z"/>
       </g>
      </g>
     </g>
    </g>
   </g>
  </g>
 </g>
</svg>